<svg height="132" viewBox="0 0 56 132" width="56" xmlns="http://www.w3.org/2000/svg" xmlns:xlink="http://www.w3.org/1999/xlink"><linearGradient id="a"><stop offset="0" stop-color="#738c9d"/><stop offset=".27" stop-color="#6c8597"/><stop offset=".67" stop-color="#577487"/><stop offset="1" stop-color="#416076"/></linearGradient><linearGradient id="b" x1=".037931%" x2="100.024349%" xlink:href="#a" y1="50.946924%" y2="50.946924%"/><linearGradient id="c" x1="100%" x2="4059%" xlink:href="#a" y1="1500%" y2="1500%"/><linearGradient id="d" x1="2741%" x2="100%" xlink:href="#a" y1="1298%" y2="1298%"/><g fill="none" transform="matrix(0 1 -1 0 56 0)"><path d="m118 42h-51.2c-7.8126714-.0878976-14.0777433-6.487221-14-14.3-.1339345-2.4191788 1.0805557-4.7141698 3.1561452-5.9640868 2.0755896-1.249917 4.67212-1.249917 6.7477096 0 2.0755895 1.249917 3.2900797 3.544908 3.1561452 5.9640868-.0004472.5149572.4054898.9385436.92.96h51.22c.522367-.010885.940113-.4375199.94-.96 0-3.6008966 2.919103-6.52 6.52-6.52s6.52 2.9191034 6.52 6.52c.077798 7.8050646-6.175173 14.2011659-13.98 14.3z" fill="url(#b)"/><path d="m59.6 56h-40c-10.93079334-.1208812-19.69994502-9.0689952-19.6-20v-16c-.10000193-10.92328796 8.65704965-19.86818232 19.58-20h40c10.9229503.13181768 19.6800019 9.07671204 19.58 20v16c.1000698 10.9155804-8.6448941 19.8572614-19.56 20zm-40-42.66c-3.648321.0330002-6.5821944 3.0115972-6.56 6.66v16c-.0333336 3.6484595 2.8916528 6.6360603 6.54 6.68h40c1.7539543-.015816 3.4294711-.7291607 4.656551-1.9825084 1.22708-1.2533478 1.9047812-2.9435957 1.883449-4.6974916v-16c.0333342-3.6374142-2.8826984-6.616061-6.52-6.66z" fill="url(#c)"/><path d="m125.48 34.46c-1.75047-.0210892-3.420852-.7367523-4.643617-1.9895235s-1.897729-2.9400098-1.876383-4.6904765c.000113-.5224801-.417633-.949115-.94-.96h-51.22c-.5145102.0214564-.9204472.4450428-.92.96.1339345 2.4191788-1.0805557 4.7141698-3.1561452 5.9640868-2.0755896 1.249917-4.67212 1.249917-6.7477096 0-2.0755895-1.249917-3.2900797-3.544908-3.1561452-5.9640868-.0777433-7.812779 6.1873286-14.2121024 14-14.3h51.18c7.812671.0878976 14.077743 6.487221 14 14.3.021346 1.7504667-.653618 3.4377053-1.876383 4.6904765s-2.893147 1.9684343-4.643617 1.9895235z" fill="url(#d)"/></g></svg>