<svg id="Layer_1" data-name="Layer 1" xmlns="http://www.w3.org/2000/svg" xmlns:xlink="http://www.w3.org/1999/xlink" viewBox="0 0 68 30" width="68" height="30">
  <defs>
    <style>
      .cls-1 {
        fill: url(#linear-gradient);
      }

      .cls-2 {
        fill: url(#linear-gradient-2);
      }

      .cls-3 {
        fill: url(#linear-gradient-3);
      }
    </style>
    <linearGradient id="linear-gradient" x1="27.41" y1="16.8" x2="67" y2="16.8" gradientUnits="userSpaceOnUse">
      <stop offset="0" stop-color="#738c9d"/>
      <stop offset="0.27" stop-color="#6c8597"/>
      <stop offset="0.67" stop-color="#577487"/>
      <stop offset="1" stop-color="#416076"/>
    </linearGradient>
    <linearGradient id="linear-gradient-2" x1="1" y1="15" x2="40.59" y2="15" xlink:href="#linear-gradient"/>
    <linearGradient id="linear-gradient-3" x1="27.41" y1="12.98" y2="12.98" xlink:href="#linear-gradient"/>
  </defs>
  <title>chain</title>
  <g>
    <path class="cls-1" d="M60,22H34.4a7.08,7.08,0,0,1-7-7.15,3.27,3.27,0,1,1,6.53,0,.48.48,0,0,0,.46.48H60a.48.48,0,0,0,.47-.48,3.26,3.26,0,1,1,6.52,0A7.08,7.08,0,0,1,60,22Z"/>
    <path class="cls-2" d="M30.8,29h-20A9.91,9.91,0,0,1,1,19V11A9.91,9.91,0,0,1,10.79,1h20a9.91,9.91,0,0,1,9.79,10v8A9.91,9.91,0,0,1,30.8,29Zm-20-21.33A3.31,3.31,0,0,0,7.52,11v8a3.31,3.31,0,0,0,3.27,3.34h20A3.3,3.3,0,0,0,34.06,19V11A3.3,3.3,0,0,0,30.8,7.67Z"/>
    <path class="cls-3" d="M63.74,18.23a3.3,3.3,0,0,1-3.26-3.34.48.48,0,0,0-.47-.48H34.4a.48.48,0,0,0-.46.48,3.27,3.27,0,1,1-6.53,0,7.08,7.08,0,0,1,7-7.15H60a7.08,7.08,0,0,1,7,7.15A3.3,3.3,0,0,1,63.74,18.23Z"/>
  </g>
</svg>
