<svg id="Layer_1" data-name="Layer 1" xmlns="http://www.w3.org/2000/svg" viewBox="0 0 82 82">
  <defs>
    <style>
      .cls-1 {
        fill: #e6e1dc;
      }
    </style>
  </defs>
  <title>Hat-Active</title>
  <g>
    <polygon class="cls-1" points="53.91 27.19 55 13.5 62.89 6.53 63 17.5 53.91 27.19"/>
    <path class="cls-1" d="M52.69,30,54,13l9.82-8.68L64,17.89ZM56,14l-.83,10.45L62,17.11l-.09-8.38Z"/>
  </g>
  <g>
    <polyline class="cls-1" points="14.5 45.5 9 57.1 41 71.07 73 57.1 67.4 43.31 58.76 48.26 51.24 32.7 41 30.93 30.76 32.7 20.5 53.5 40.5 61.5"/>
    <polygon points="41 72.16 40.6 71.98 7.65 57.6 13.6 45.07 15.4 45.93 10.35 56.6 41 69.98 71.71 56.57 66.9 44.75 58.33 49.66 50.56 33.6 41 31.95 31.43 33.6 21.88 52.97 40.87 60.57 40.13 62.43 19.13 54.03 30.09 31.8 41 29.92 51.92 31.8 59.19 46.86 67.9 41.87 74.29 57.63 41 72.16"/>
  </g>
</svg>
