<svg id="Layer_1" data-name="Layer 1" xmlns="http://www.w3.org/2000/svg" xmlns:xlink="http://www.w3.org/1999/xlink" viewBox="0 0 88 94" width="88" height="94">
  <defs>
    <style>
      .cls-1 {
        fill: url(#linear-gradient);
      }
    </style>
    <linearGradient id="linear-gradient" x1="6.87" y1="70.92" x2="83.54" y2="26.65" gradientUnits="userSpaceOnUse">
      <stop offset="0" stop-color="#738c9d"/>
      <stop offset="0.27" stop-color="#6c8597"/>
      <stop offset="0.67" stop-color="#577487"/>
      <stop offset="1" stop-color="#416076"/>
    </linearGradient>
  </defs>
  <title>horseshoe</title>
  <path class="cls-1" d="M74.86,13.87C67,5.57,56.09,1,44,1S21,5.57,13.14,13.87,1,33.76,1,47C1,65.51,11.64,80.3,18.79,86.75a6.37,6.37,0,0,0,12.73-.14V83.7a6.39,6.39,0,0,0-2.79-5.29c-2.47-1.68-15-13.89-15-31.41C13.73,27.13,25.9,13.77,44,13.77S74.27,27.13,74.27,47c0,17.52-12.53,29.73-15,31.41a6.39,6.39,0,0,0-2.79,5.29v2.91a6.37,6.37,0,0,0,12.73.14C76.36,80.3,87,65.51,87,47,87,33.76,82.8,22.3,74.86,13.87ZM5.53,39.56l4.71.27L10,44.55l-4.71-.26Zm.26,14.78-.49-4.7,4.69-.5.49,4.7Zm4.9-18.5L6.25,34.23l1.6-4.45,4.44,1.61Zm35.67-25H41.64V6.16h4.72ZM83,44.29l-4.72.26L78,39.83l4.71-.27Zm-7-12.9,4.44-1.61L82,34.23l-4.44,1.61Zm6.5,23-4.69-.5.49-4.7,4.7.5Z"/>
</svg>
