<svg id="Layer_1" data-name="Layer 1" xmlns="http://www.w3.org/2000/svg" viewBox="0 0 32 32">
  <defs>
    <style>
      .cls-1 {
        fill: #e6e1dc;
      }
    </style>
  </defs>
  <title>i-return</title>
  <g>
    <g>
      <path class="cls-1" d="M15.8,24.2A8.18,8.18,0,0,1,10,21.8l1.42-1.42a6.19,6.19,0,1,0,0-8.76A6.11,6.11,0,0,0,9.6,16v3h-2V16a8.2,8.2,0,1,1,8.2,8.2Z"/>
      <polygon class="cls-1" points="8.6 20.4 4.29 16.09 5.71 14.68 8.6 17.57 11.49 14.68 12.91 16.09 8.6 20.4"/>
    </g>
    <path class="cls-1" d="M16,2A14,14,0,1,1,2,16,14,14,0,0,1,16,2m0-2A16,16,0,1,0,32,16,16,16,0,0,0,16,0Z"/>
  </g>
</svg>
