<?xml version="1.0" encoding="UTF-8"?>
<svg width="32px" height="214px" viewBox="0 0 32 214" version="1.1" xmlns="http://www.w3.org/2000/svg" xmlns:xlink="http://www.w3.org/1999/xlink">
    <!-- Generator: Sketch 45.2 (43514) - http://www.bohemiancoding.com/sketch -->
    <title>Knife</title>
    <desc>Created with Sketch.</desc>
    <defs>
        <linearGradient x1="47.4172498%" y1="116.670637%" x2="52.4255051%" y2="-46.9795376%" id="linearGradient-1">
            <stop stop-color="#697C8A" offset="0%"></stop>
            <stop stop-color="#637583" offset="13%"></stop>
            <stop stop-color="#54636E" offset="33%"></stop>
            <stop stop-color="#3A454D" offset="57%"></stop>
            <stop stop-color="#171B1E" offset="84%"></stop>
            <stop stop-color="#FFFFFF" offset="100%"></stop>
        </linearGradient>
        <linearGradient x1="47.9805071%" y1="91.7756133%" x2="53.2171471%" y2="-39.8451186%" id="linearGradient-2">
            <stop stop-color="#E4F1EB" offset="0%"></stop>
            <stop stop-color="#DDEAE4" offset="9%"></stop>
            <stop stop-color="#CAD5D0" offset="23%"></stop>
            <stop stop-color="#AAB3AF" offset="39%"></stop>
            <stop stop-color="#7E8581" offset="58%"></stop>
            <stop stop-color="#454947" offset="78%"></stop>
            <stop stop-color="#010101" offset="100%"></stop>
            <stop stop-color="#FFFFFF" offset="100%"></stop>
        </linearGradient>
        <linearGradient x1="13156%" y1="1427%" x2="13616%" y2="1427%" id="linearGradient-3">
            <stop stop-color="#697C8A" offset="0%"></stop>
            <stop stop-color="#637583" offset="13%"></stop>
            <stop stop-color="#54636E" offset="33%"></stop>
            <stop stop-color="#3A454D" offset="57%"></stop>
            <stop stop-color="#171B1E" offset="84%"></stop>
            <stop stop-color="#FFFFFF" offset="100%"></stop>
        </linearGradient>
        <linearGradient x1="20789%" y1="1427%" x2="21193%" y2="1427%" id="linearGradient-4">
            <stop stop-color="#697C8A" offset="0%"></stop>
            <stop stop-color="#637583" offset="13%"></stop>
            <stop stop-color="#54636E" offset="33%"></stop>
            <stop stop-color="#3A454D" offset="57%"></stop>
            <stop stop-color="#171B1E" offset="84%"></stop>
            <stop stop-color="#FFFFFF" offset="100%"></stop>
        </linearGradient>
    </defs>
    <g id="Page-1" stroke="none" stroke-width="1" fill="none" fill-rule="evenodd">
        <g id="Knife" transform="translate(16.000000, 106.500000) rotate(-90.000000) translate(-16.000000, -106.500000) translate(-91.000000, 91.000000)" fill-rule="nonzero">
            <g id="Group">
                <g transform="translate(0.000000, 3.000000)" id="Shape">
                    <path d="M127,15.54 L127.19,0.69 C127.19,0.69 51.57,-3.33066907e-16 0,0.69 C14.43,15.05 48.91,24.66 121.07,22 L121.97,15.73 L127,15.54 Z" fill="url(#linearGradient-1)"></path>
                    <path d="M0,0.69 C7.09,31.32 120.23,27.88 120.23,27.88 L121.07,22 C58,23.58 15.56,13.94 0,0.69 Z" fill="url(#linearGradient-2)"></path>
                </g>
                <g transform="translate(126.000000, 1.000000)" id="Shape">
                    <path d="M3,2.56 C6.81,1.12 25.51,0.14 41.33,0.14 C60.56,0.14 82.21,2.55 84.71,3.65 C87.81,5.01 87.97,21.65 84.16,23.05 C81.45,24.05 64.93,26.41 42.65,26.41 C23.78,26.41 5.19,24.64 3.24,23.7 C-0.7,21.82 -0.84,4 3,2.56 Z" fill="#EED7B8"></path>
                    <g opacity="0.25" style="mix-blend-mode: multiply;" fill="#000000">
                        <path d="M3,2.56 C6.81,1.12 25.51,0.14 41.33,0.14 C60.56,0.14 82.21,2.55 84.71,3.65 C87.81,5.01 87.97,21.65 84.16,23.05 C81.45,24.05 64.93,26.41 42.65,26.41 C23.78,26.41 5.19,24.64 3.24,23.7 C-0.7,21.82 -0.84,4 3,2.56 Z"></path>
                    </g>
                </g>
                <g transform="translate(121.000000, 0.000000)" id="Rectangle-path">
                    <rect fill="#EED7B8" x="0.94" y="0" width="9.83" height="28.55" rx="4.915"></rect>
                    <g opacity="0.25" style="mix-blend-mode: multiply;" fill="#000000">
                        <rect x="0.94" y="0" width="9.83" height="28.55" rx="4.915"></rect>
                    </g>
                </g>
                <g transform="translate(131.000000, 0.000000)" id="Rectangle-path">
                    <rect fill="url(#linearGradient-3)" x="0.56" y="0.94" width="4.59" height="26.67" rx="2.295"></rect>
                    <g opacity="0.25" style="mix-blend-mode: multiply;" fill="#000000">
                        <rect x="0.56" y="0.94" width="4.59" height="26.67" rx="2.295"></rect>
                    </g>
                </g>
                <g transform="translate(207.000000, 2.000000)" id="Rectangle-path">
                    <rect fill="url(#linearGradient-4)" x="0.89" y="0.55" width="4.04" height="23.45" rx="2.02"></rect>
                    <g opacity="0.25" style="mix-blend-mode: multiply;" fill="#000000">
                        <rect x="0.89" y="0.55" width="4.04" height="23.45" rx="2.02"></rect>
                    </g>
                </g>
            </g>
            <g id="Group" opacity="0.5" transform="translate(17.000000, 6.000000)" fill="#FFFFFF">
                <path d="M0.68,0.46 L13.07,0.73 L25.46,0.94 L50.23,1.22 L75,1.56 L87.39,1.82 C91.52,1.94 95.65,2.05 99.78,2.23 L87.39,2.31 L75,2.33 C66.73,2.33 58.47,2.27 50.21,2.22 C41.95,2.17 33.7,2 25.44,1.71 C17.18,1.42 8.92,1.08 0.68,0.46 Z" id="Shape"></path>
            </g>
        </g>
    </g>
</svg>