<svg height="214" viewBox="0 0 32 214" width="32" xmlns="http://www.w3.org/2000/svg" xmlns:xlink="http://www.w3.org/1999/xlink"><linearGradient id="a"><stop offset="0" stop-color="#697c8a"/><stop offset=".13" stop-color="#637583"/><stop offset=".33" stop-color="#54636e"/><stop offset=".57" stop-color="#3a454d"/><stop offset=".84" stop-color="#171b1e"/><stop offset="1" stop-color="#fff"/></linearGradient><linearGradient id="b" x1="47.41725%" x2="52.425505%" xlink:href="#a" y1="116.670637%" y2="-46.979538%"/><linearGradient id="c" x1="47.980507%" x2="53.217147%" y1="91.775613%" y2="-39.845119%"><stop offset="0" stop-color="#e4f1eb"/><stop offset=".09" stop-color="#ddeae4"/><stop offset=".23" stop-color="#cad5d0"/><stop offset=".39" stop-color="#aab3af"/><stop offset=".58" stop-color="#7e8581"/><stop offset=".78" stop-color="#454947"/><stop offset="1" stop-color="#010101"/><stop offset="1" stop-color="#fff"/></linearGradient><linearGradient id="d" x1="13156%" x2="13616%" xlink:href="#a" y1="1427%" y2="1427%"/><linearGradient id="e" x1="20789%" x2="21193%" xlink:href="#a" y1="1427%" y2="1427%"/><g fill="none" transform="matrix(0 -1 1 0 .5 213.5)"><g transform="translate(0 3)"><path d="m127 15.54.19-14.85s-75.62-.69-127.19 0c14.43 14.36 48.91 23.97 121.07 21.31l.9-6.27z" fill="url(#b)"/><path d="m0 .69c7.09 30.63 120.23 27.19 120.23 27.19l.84-5.88c-63.07 1.58-105.51-8.06-121.07-21.31z" fill="url(#c)"/></g><g transform="translate(126 1)"><path d="m3 2.56c3.81-1.44 22.51-2.42 38.33-2.42 19.23 0 40.88 2.41 43.38 3.51 3.1 1.36 3.26 18-.55 19.4-2.71 1-19.23 3.36-41.51 3.36-18.87 0-37.46-1.77-39.41-2.71-3.94-1.88-4.08-19.7-.24-21.14z" fill="#eed7b8"/><path d="m3 2.56c3.81-1.44 22.51-2.42 38.33-2.42 19.23 0 40.88 2.41 43.38 3.51 3.1 1.36 3.26 18-.55 19.4-2.71 1-19.23 3.36-41.51 3.36-18.87 0-37.46-1.77-39.41-2.71-3.94-1.88-4.08-19.7-.24-21.14z" fill="#000" opacity=".25"/></g><rect fill="#eed7b8" height="28.55" rx="4.915" width="9.83" x="121.94"/><rect fill="#000" height="28.55" opacity=".25" rx="4.915" width="9.83" x="121.94"/><g transform="translate(131)"><rect fill="url(#d)" height="26.67" rx="2.295" width="4.59" x=".56" y=".94"/><rect fill="#000" height="26.67" opacity=".25" rx="2.295" width="4.59" x=".56" y=".94"/></g><g transform="translate(207 2)"><rect fill="url(#e)" height="23.45" rx="2.02" width="4.04" x=".89" y=".55"/><rect fill="#000" height="23.45" opacity=".25" rx="2.02" width="4.04" x=".89" y=".55"/></g><path d="m.68.46 12.39.27 12.39.21 24.77.28 24.77.34 12.39.26c4.13.12 8.26.23 12.39.41l-12.39.08-12.39.02c-8.27 0-16.53-.06-24.79-.11s-16.51-.22-24.77-.51-16.52-.63-24.76-1.25z" fill="#fff" opacity=".5" transform="translate(17 6)"/></g></svg>