<svg id="Layer_1" data-name="Layer 1" xmlns="http://www.w3.org/2000/svg" viewBox="0 0 82 82">
  <defs>
    <style>
      .cls-1 {
        fill: #e6e1dc;
      }
    </style>
  </defs>
  <title>LegWear-Active</title>
  <g>
    <polyline class="cls-1" points="32.94 33.33 41 33.33 43.06 33.33 49.85 73.73 57.22 75.5 64.3 73.73 59.29 28.9 58.7 11.5 41 11.5 23.3 11.5 22.71 28.9 17.7 73.73 24.78 75.5 32.15 73.73 40 33.33"/>
    <path d="M57.23,76.53l-8.26-2L42.22,34.32h-1.4L33,74.55l-8.24,2-8.16-2,5.11-45.7.62-18.29H59.66l.63,18.37,5.1,45.62Zm-6.51-3.62,6.5,1.56,6-1.5L58.29,29,57.73,12.5H24.27l-.56,16.43L18.79,73l6,1.5,6.51-1.56,7.5-38.59H32.94v-2h11Z"/>
  </g>
</svg>
