<svg id="Layer_1" data-name="Layer 1" xmlns="http://www.w3.org/2000/svg" xmlns:xlink="http://www.w3.org/1999/xlink" viewBox="0 0 18 68" width="18" height="68">
  <defs>
    <style>
      .cls-1 {
        fill: url(#linear-gradient);
      }

      .cls-2 {
        fill: url(#linear-gradient-2);
      }

      .cls-3 {
        fill: url(#linear-gradient-3);
      }

      .cls-4 {
        fill: url(#linear-gradient-4);
      }
    </style>
    <linearGradient id="linear-gradient" x1="9" y1="64.65" x2="9" y2="67" gradientUnits="userSpaceOnUse">
      <stop offset="0" stop-color="#97b4c5"/>
      <stop offset="0.18" stop-color="#90adbe"/>
      <stop offset="0.46" stop-color="#7b99ab"/>
      <stop offset="0.79" stop-color="#5a788d"/>
      <stop offset="1" stop-color="#416076"/>
    </linearGradient>
    <linearGradient id="linear-gradient-2" x1="9" y1="63.74" x2="9" y2="65.56" xlink:href="#linear-gradient"/>
    <linearGradient id="linear-gradient-3" x1="5.94" y1="32.78" x2="12.06" y2="32.78" xlink:href="#linear-gradient"/>
    <linearGradient id="linear-gradient-4" x1="7.75" y1="1" x2="7.75" y2="10.13" xlink:href="#linear-gradient"/>
  </defs>
  <title>Nail</title>
  <g>
    <path class="cls-1" d="M1,64.65v1.44c0,.5,3.58.91,8,.91s8-.41,8-.91V64.65Z"/>
    <ellipse class="cls-2" cx="9" cy="64.65" rx="8" ry="0.91"/>
    <path class="cls-3" d="M12.06,64.13c0,.52-6.12.62-6.12,0s.56-56.2.56-56.2L9,1l2.49,6.93S12.06,63.61,12.06,64.13Z"/>
    <path class="cls-4" d="M9,1V9A1.17,1.17,0,0,1,7.44,10,13,13,0,0,1,6.5,7.93Z"/>
  </g>
</svg>
