<svg height="132" viewBox="0 0 32 132" width="32" xmlns="http://www.w3.org/2000/svg" xmlns:xlink="http://www.w3.org/1999/xlink"><linearGradient id="a"><stop offset="0" stop-color="#97b4c5"/><stop offset=".18" stop-color="#90adbe"/><stop offset=".46" stop-color="#7b99ab"/><stop offset=".79" stop-color="#5a788d"/><stop offset="1" stop-color="#416076"/></linearGradient><linearGradient id="b" x1="50%" x2="50%" xlink:href="#a" y1="0%" y2="100%"/><linearGradient id="c" x1="900%" x2="900%" xlink:href="#a" y1="6374%" y2="6556%"/><linearGradient id="d" x1="594%" x2="1206%" xlink:href="#a" y1="3278%" y2="3278%"/><linearGradient id="e" x1="775%" x2="775%" xlink:href="#a" y1="100%" y2="1013%"/><g fill="none" transform="matrix(-1 0 0 -1 32 132)"><path d="m0 127.3v2.88c0 1 7.16 1.82 16 1.82s16-.82 16-1.82v-2.88z" fill="url(#b)"/><ellipse cx="16" cy="127.3" fill="url(#c)" rx="16" ry="1.82"/><path d="m22.12 126.26c0 1.04-12.24 1.24-12.24 0s1.12-112.4 1.12-112.4l5-13.86 4.98 13.86s1.14 111.36 1.14 112.4z" fill="url(#d)"/><path d="m16 0v16c-.0629485.722758-.4575781 1.3754394-1.0683564 1.766964-.6107783.3915245-1.3686148.4776034-2.0516436.233036-.7463626-1.3224514-1.3754342-2.7077472-1.88-4.14z" fill="url(#e)"/></g></svg>