<?xml version="1.0" encoding="UTF-8"?>
<svg width="32px" height="132px" viewBox="0 0 32 132" version="1.1" xmlns="http://www.w3.org/2000/svg" xmlns:xlink="http://www.w3.org/1999/xlink">
    <!-- Generator: Sketch 45.2 (43514) - http://www.bohemiancoding.com/sketch -->
    <title>Nail</title>
    <desc>Created with Sketch.</desc>
    <defs>
        <linearGradient x1="50%" y1="0%" x2="50%" y2="100%" id="linearGradient-1">
            <stop stop-color="#97B4C5" offset="0%"></stop>
            <stop stop-color="#90ADBE" offset="18%"></stop>
            <stop stop-color="#7B99AB" offset="46%"></stop>
            <stop stop-color="#5A788D" offset="79%"></stop>
            <stop stop-color="#416076" offset="100%"></stop>
        </linearGradient>
        <linearGradient x1="900%" y1="6374%" x2="900%" y2="6556%" id="linearGradient-2">
            <stop stop-color="#97B4C5" offset="0%"></stop>
            <stop stop-color="#90ADBE" offset="18%"></stop>
            <stop stop-color="#7B99AB" offset="46%"></stop>
            <stop stop-color="#5A788D" offset="79%"></stop>
            <stop stop-color="#416076" offset="100%"></stop>
        </linearGradient>
        <linearGradient x1="594%" y1="3278%" x2="1206%" y2="3278%" id="linearGradient-3">
            <stop stop-color="#97B4C5" offset="0%"></stop>
            <stop stop-color="#90ADBE" offset="18%"></stop>
            <stop stop-color="#7B99AB" offset="46%"></stop>
            <stop stop-color="#5A788D" offset="79%"></stop>
            <stop stop-color="#416076" offset="100%"></stop>
        </linearGradient>
        <linearGradient x1="775%" y1="100%" x2="775%" y2="1013%" id="linearGradient-4">
            <stop stop-color="#97B4C5" offset="0%"></stop>
            <stop stop-color="#90ADBE" offset="18%"></stop>
            <stop stop-color="#7B99AB" offset="46%"></stop>
            <stop stop-color="#5A788D" offset="79%"></stop>
            <stop stop-color="#416076" offset="100%"></stop>
        </linearGradient>
    </defs>
    <g id="Page-1" stroke="none" stroke-width="1" fill="none" fill-rule="evenodd">
        <g id="Nail" transform="translate(16.000000, 66.000000) rotate(180.000000) translate(-16.000000, -66.000000) " fill-rule="nonzero">
            <path d="M0,127.3 L0,130.18 C0,131.18 7.16,132 16,132 C24.84,132 32,131.18 32,130.18 L32,127.3 L0,127.3 Z" id="Shape" fill="url(#linearGradient-1)"></path>
            <ellipse id="Oval" fill="url(#linearGradient-2)" cx="16" cy="127.3" rx="16" ry="1.82"></ellipse>
            <path d="M22.12,126.26 C22.12,127.3 9.88,127.5 9.88,126.26 C9.88,125.02 11,13.86 11,13.86 L16,0 L20.98,13.86 C20.98,13.86 22.12,125.22 22.12,126.26 Z" id="Shape" fill="url(#linearGradient-3)"></path>
            <path d="M16,0 L16,16 C15.9370515,16.722758 15.5424219,17.3754394 14.9316436,17.766964 C14.3208653,18.1584885 13.5630288,18.2445674 12.88,18 C12.1336374,16.6775486 11.5045658,15.2922528 11,13.86 L16,0 Z" id="Shape" fill="url(#linearGradient-4)"></path>
        </g>
    </g>
</svg>