<svg id="Layer_1" data-name="Layer 1" xmlns="http://www.w3.org/2000/svg" xmlns:xlink="http://www.w3.org/1999/xlink" viewBox="0 0 132 132" width="132" height="132">
  <defs>
    <style>
      .cls-1 {
        fill: url(#linear-gradient);
      }

      .cls-2 {
        fill: #1115a6;
      }
    </style>
    <linearGradient id="linear-gradient" x1="1" y1="66" x2="131" y2="66" gradientUnits="userSpaceOnUse">
      <stop offset="0" stop-color="#fff"/>
      <stop offset="1" stop-color="#e6dad0"/>
    </linearGradient>
  </defs>
  <title>plate</title>
  <g>
    <circle class="cls-1" cx="66" cy="66" r="65"/>
    <g>
      <path class="cls-2" d="M32.52,102.05h0Z"/>
      <path class="cls-2" d="M123,78.35c.37-2.84,1.09-5.57,1.31-8.44a56.13,56.13,0,0,0-10.15-37C101.85,16,81.47,5.73,59.81,8.23,49.63,9.4,38.29,13.17,30.53,20.09,23.62,26.25,16.26,33.26,13,42.55c.73-.12.63-.9,1.2-1-.4,2.74,2.54.6,3.81,1.77s-.66,4.17-1.58,3.44c.09.08.27-3.66-.21-2.37a1.69,1.69,0,0,0-3.15.51c-.1,1.18.24.74.85,1.05,0,0,1.82.18,1.94.16-.1.39-.47,1.61-.86,1.74-.1-1.59-1.78-1.75-2.58-.47-1.53,2.43,1.53.87,1.4,2.52-.93-.32-3.25-.25-2.77,1.42.39,1.33,2,.18,1.93,2-.88-.48-2.36-.43-2.06,1.14.14.74.79.72,1,1.36.1.42-1.16,2.45.53,1.94,1-.31-.28-2.19.44-2.62,1,1.23-.56,3,.16,4.39.62,1.17,4.14,1,2.26,2.79-2.66-2.2-6.06-.73-6.47,2.64-.07.57-.16,1.81.25,2.28.62.72.93.09,1.45.51.23.19,1,1.14.93,1.5-.08.55-.48.28-.77.71-.91,1.36-1.92,3-.95,4.71.26.48.81,1.27,1.5,1,1.29-.41.33-1.59.55-2.29.91-2.86,6.43,0,5.69,2.48-.06,0-2.37-3.14-3.51-3-1.48.11-2,2-1.65,3.18.12.43.49,1.51,1.1,1.5s.33-.93.52-1.11c.59-.57.5-1,1.56-.91a1.75,1.75,0,0,1,1.65,2.17c-.56.16-1-1.13-1.63-1.19-.83-.08-1.64,1-1.79,1.69a2.11,2.11,0,0,0,.73,2c.61.63.51-.45,1-.27.35,2.07,1.83,1.81,3.36,2.82-.79.74-.61.78-.42,1.9-2.56-.15-5.58,1.12-4.88,4.19.22,1,3,5.09,3.3,2.66l1.73,1A2.19,2.19,0,0,0,17,96c.4.57,1.09,1.18,1.84.79.27-.14,0-1.2.07-1.31,1.91-2.42,3.73-.28,4.21,1.88C22,97,21,95.13,19.66,95.92a2.11,2.11,0,0,0-.3,2.8c1.29,1.69,1.24.07,2-.47,1.11-.8,2-.19,2.47,1.11-1,.12-2-1.13-2.63.46-.23.63.47,2,1.22,2,.45,0,2.84-2.39,2.29-.3,0,0-.86.29-1,.6a1.19,1.19,0,0,0,.49,1.4c1.45,1.07,1.85-2,2.87-.87-2.66.68,1.61,2.35,2.07,2.71,1,.75,1.44,1.62,2.79,1s1.08-2.17,2.63-.49c-2.83,2.32-3.89,5.06-.47,7.55.87.64,2,1.37,3,.78s.18-1.55,2-1.37c-.1,1.94.14,4.09,2.5,4.14.51,0,1.26.31,1.5-.37s-.65-.63-.82-.95c-1.68-3.16,2.82-6.47,5.43-4.11-1.23.59-2.85-.45-4.14.45a2.48,2.48,0,0,0-.16,3.93c.42.37,1.5,1.14,2.08.59s0-.47-.09-1.39c-.16-1.63.68-3.46,3-2.82-1.31.4-2.6.83-2.26,2.5.14.69.94,1.89,1.76,1.91,2.16,0,.46-1.83,1.08-2.84.83-1.37,1.89,0,3-.18a3.75,3.75,0,0,0,.17,1.85c.29.49,1,.43,1.09.95,0,.21-.59,1.89-.57,2.31a3.46,3.46,0,0,0,.45,1.75c.65.86,2.62,1.17,3.67.87,1.31-.38,1.34-1.62,2.81-1.65a2.44,2.44,0,0,0,2,2.87c1.22.26,1.14-.47,2.13-.6.53-.08.78.33,1.38.3,1.95-.1,1.14-.6.93-1.7-.17-.89-.92-.81-.16-1.78a1.9,1.9,0,0,1,2.17-.39c-1,.91-2.23,3.45.3,3.52,2.85.08-.86-2.65,1-3.27.79-.27.28,2.84,1.87,3,3,.32-.83-3.32.94-3.3,0,1.06,1.23,3.21,2.08,1.3,0,0-.91-3.62.87-2.82.66.29-.94,1.2-.6,1.65.14.16.2.07.17-.27,1,1.71,1.43-.5,2-.87s1.6-.13,2.25-.73.35-2.44.72-2.57c1,.72,3.5-.71,3.69-.48-.41,1-.62.54-.16,1.51-1.51-.21.63,2.13,1.15,2.34a4.23,4.23,0,0,0,3.72-.41c1.46-1,.37-2.29,1.52-3.33.77-.7.58-.13,1.69.43a3.11,3.11,0,0,0,3.88-.65c1.35-1.82-.1-1.06-1-1-2.92.36-3.77-2.77-2.74-4.61-.77.27-1.08,1.94-1.38,2.71-.59-.2-.12-.77,0-1-1.45-.39-.21-1.67-1-2.09.28-1.22,2.24-1.06,3-.83a6.49,6.49,0,0,1-.68,1.2,4.64,4.64,0,0,1,2.09-1.4c-.6,1-1.8,2.35-1.17,3.59a2.86,2.86,0,0,0,3.48.9c.29-.17,1.12-1,1-1.44-.23-1-.46-.14-.86-.29-1.18-.45-2.78,0-2.46-2a6.07,6.07,0,0,1,1.69-2.36c1.57-.62.06,1.38.06,2,0,1.16.9,2.07,2.13,1.29.67-.43.77-.76.6-1.07,0,0,0,0,0,0-.28-.48-1.24-.88-1.68-1.38,1.76-1,.53-1.29.21-2.78-.09-.44.41-2,.12-2.5-.42-.7-1.29-.41-1.92-.36,0,0-1.39.16-.79.25-1.63-.24,0-.72,0-.78-1.63-1.11-2.42-.06-3.81.7a28.88,28.88,0,0,1-4.1,1.45c.29-1-.14-1.55-1.12-1.19.2-1.42-1-.61-1.41-1A10.39,10.39,0,0,1,82.82,98c-.23-.5.06-1.06-.58-1.26-.4-.12-1.79.85-2,1-2.91,1.78-3.23,4.46-.84,6.86-.4.17-1.41,1-1.8.9s-.92-1.31-1.29-1.53a7,7,0,0,0-1.43-.58c-.34-.12-.83,0-1.13-.14-.47-.28-.4-.73-1-.94-.86-.29-1.18.53-1.76.44.12-.13-2.77-1.78-2.67.41a2.06,2.06,0,0,0,1.66,1.4c1.1-.11.3-.93,1.21-1.32.07.85,1.07,1.19,1.07,2.24-2.21-1.26-3.93,0-6.45.6-3.27.8-2.46-4-.67-3.7-.3,1.23-.23,2.53,1.08,1.35.51,1.22,1.82-.76,1.56-1.4s-2.32-.69-3-1.48c2.92-.64,6.07-.53,9-1.24a32.11,32.11,0,0,0,9.66-4.3,30.34,30.34,0,0,0,6.44-5.41c.32-.37,3.11-3.32,2.86-3.44-4.27,4.37-7.69,7.47-13.19,9.93a34.92,34.92,0,0,1-25.2,1.73A33.33,33.33,0,0,1,31.47,64.71,34.65,34.65,0,0,1,49.38,37c12.43-6.9,28.48-6.3,39.45,3.16A33.67,33.67,0,0,1,100,59.73a32.69,32.69,0,0,1,0,10.9A42.08,42.08,0,0,1,99,75.2c-.22.75-1.46,3-1.06,3.64,2.77-2.78,3.21-8.89,3.37-12.62.23-5.32-1.15-10.35-3.1-15.25.14-.1,1.81,1.91,2.17,2.13a3.94,3.94,0,0,0,4-.09c.71-.45,1.26-1.86,1.93-1.52a1.44,1.44,0,0,1,.32,2.12c0,.06-.95-.21-1.22,0a2.27,2.27,0,0,0-.2,1.78c.49,1.09,1.23.68,2,.24.28-.16.29-1.12.56-1.21.71-.24.53,1.18.59,1.55a17.82,17.82,0,0,0,.23,2.79c-.82-.07.06.54-.89.25.11.54-.78.91-1.33,1.06-1.9.52-1.81-.08-2.55-1.39-.22-.38-.09-1.45-.93-1.2-.4.11-.51,1.36-.52,1.6a3.86,3.86,0,0,0,2.16,3.68c-1.08.93-1.63-.34-2.55.12-.76.38,0,3.46.18,4.05a4.13,4.13,0,0,0,2.66,2.57c1.78.59,2.67-.52,4.26-.62-.14,1.91-.25.68-1.32,1.26a18.25,18.25,0,0,1-1.79.79c-.53.21-2,.24-1.69,1.27a.38.38,0,0,1,.5,0,.7.7,0,0,1-.79.42c.24.45,2.28.26,1.28,1.71-.47.67-1.36-.64-2-.41a1.09,1.09,0,0,0-.53,1.71c.76,1.6,1.59,0,2.31.6-.86,1.43-1.29,2.27-2.74,1.37-.74,1-1.07,3.43.93,2.56a3.48,3.48,0,0,0,1.12-1.44c-.22.18-.94.29-.54-.16s1.36-.41,1.84-.52c1.51-.33.69.39,1.78-.88a15.15,15.15,0,0,1,1.64-1.87c-.14-.19-1.23.51-1.75-.1a1.38,1.38,0,0,1,.88-.42,2.3,2.3,0,0,1-.2.22s0,0,0,0h0v0a.16.16,0,0,1,0,.08,0,0,0,0,0,0-.06.34.34,0,0,0,.41.06c.06-.17,0-.27-.19-.3h0a1.12,1.12,0,0,1,1.13-.39c-.23,1-.08.7.58.5-.28,1.45-1.65,2.24-.46,4.22,1.49,2.46,5-.3,5.51-2.35,1-.3.65,2.87.53,3.26A5.26,5.26,0,0,1,113.35,83c-1.64.69-2.3-1.73-4.18-2.28.61-.38.23-.66-.5-.79s-1.47.61-1.93-.26c-.46.81-.83,1.17.07,1.41.52.13.89-.58,1.54-.29.31.14.61.82.75,1.11.5,1.08.53,1.4-.38,2.39-1.17,1.28-.67.29-1.72.73a8.79,8.79,0,0,0-.33-2.17c-.2-.38.39-.17.09-.61-.19-.27-.83,1.38-.83.22-2,1-.05,6.76,3.25,3-.57.08,1.28-.15.57-1.36-.21.63-.47.83-.79.62.23-1.72,1.72-.83,2.51-1.48.2.55.12,1.78.55,2-1.49,2.26-2.26,5.11-5.62,5.9a3.29,3.29,0,0,1-3.93-2.21c-.27-.82.17-3.45-.61-3.87.13-.22,1-1.62-.06-1a.29.29,0,0,1,0-.37c-.3.23-.69.55-.6.58-.29,0-1.1-.56-1.26-.32-.44.66.08.4,0,.81.41-.08.55,0,.43.38a2.66,2.66,0,0,1-.18.88c-.13.57-.61.64-.73,1.25-.19.93.53,1.12.65,2.2.06.57-.27.83-.28,1.26,0,.8.69.35.3.9.56-.25.61-.36.85.15.76-.53.52.36.53.74a10.56,10.56,0,0,1-.71,1.08l.36.48c0-.09.45-.1.5,0s-.49,1.1-.35,1.26c.44-.27,2.73-2.1,3-1.47s-1.52,2.49-1.7,3.09c1.75-2.09,1.65-.48,1.59,1.34a.66.66,0,0,1,.31.91,2.84,2.84,0,0,1-.47.37c0,.23-.8.63-.39,1,.69.64,1.79-1.83,2.36.42.16.63-.36,2.11-1,2.24s-1-.64-1.53-.66c-1.15-.07-.36-.31-1,.39a3.63,3.63,0,0,0-.55,1.37c.12,1.55,2.17,2,3.38,1.59a3.29,3.29,0,0,0,2.33-3.57c0-.63-.36-3.07.72-2.94,0,.71.3.47.72.82.82.64,1,.58,2.49.25-2.84,4.4-6.77,7.29-10.82,10.51a57.5,57.5,0,0,1-66.35,3.18A56.85,56.85,0,0,1,11.59,85.63C8.88,78,7.37,69,8.23,61.58c.18-1.57.42-3.28.68-4.86.16-1,.26-2.07.46-3,.09-.44.67-1.08.43-1.47a2.08,2.08,0,0,0-.32-.41c.95.36.64-1.73.63-2.27-.15.72-.75,1.53-.65,2.26-.63-.48-.57,1.67-.58,1.78-.13,1.3-.52,2.59-.74,3.87a66.31,66.31,0,0,0-.74,8.07A54.34,54.34,0,0,0,18.1,99.72c6.5,8.42,14.21,15.16,24.17,19.57a57.76,57.76,0,0,0,37.12,3.29c9.92-2.56,18.36-7.61,25.84-13.84,3.52-2.93,5.94-7,8.72-10.2a33.84,33.84,0,0,0,6.42-12.4c-.75,0-2.18,3.23-2.53,3.89-.59,1.12-1.32,2.43-1.9,3.63s-1.38,2.21-1.94,3.17a8.55,8.55,0,0,1-.68,1.39c-.86.91-.47.42-1.45.13.26.36-.21,1.26-.54,1.46-.14-.5.54-1.6.43-1.66-.41-.23-1.23.32-1.71.27s-.74-.53-1.18-.54c-1.81,0,.24.5-1,1.28-.52-.91-1.12-1.16-1.65-1.88a3.88,3.88,0,0,1-.68-2.59c-.11.17-.78.84-1,.41.55-.76,3.35-2.73,3.36-.79.37-.06,1.32-2.51,2-1,.72-.89,1.61-1.39,2.17-2.11a12.84,12.84,0,0,1,1.54-2c-.78-.26.22-3,.46-2.82-.07,1.59.33.38.57.33-.27.05.09-.15.37-.28-.45-.27-1.33-1.1-1.17-1.12-1.05.14-.37,1-1.28,1.8-.11-1-.13-1.6.45-2.08s1.2.09,1.73-.28,0-2.06.83-2.21c1.21-.2,2.32,3.07,3.51,2.69.82-.25.64-1.88.26-2.27s-1.4.72-1.31-.76c1.06.36,3.38.2,2.67-1.61-.44-1.12-2.11,0-1.81-1.75,1,.57,2.37.16,2-1.35-.13-.49-.74-.68-.9-1.18s1.14-2.52-.57-1.9c-1,.36.31,2.13-.4,2.59-1.56-1.79,1.49-4.2-1.6-5.51-.56-.24-1.82.14-1.24-1,.45-.86.81-.24,1.54,0,2,.57,3.81.58,4.89-1.58a5.23,5.23,0,0,0,.42-3.07c-.31-1.37-.65-.8-1.49-1.42-2.47-1.81.37-2.17.83-4.2.21-1-.35-5.2-2.18-3.39-.71.7.19,1.59-.19,2.32-.64,1.19-2.41.72-3.31.32-.54-.24-3.34-3.27-2.19-3.23s1.5,3.25,3.51,3.05c1.33-.14,1.76-1.64,1.61-2.75-.06-.43-.35-1.88-1-1.85s-.3.7-.67,1.12c-.52.58-.55,1-1.52.87a1.75,1.75,0,0,1-1.66-2.22c.62-.1.92,1.14,1.6,1.24s1.44-.81,1.65-1.33a2,2,0,0,0-.19-2c-.92-1-.91.18-1.45-.16-.1-2.06-2-1.81-3.33-2.8.78-.67.58-.88.42-1.91,2.24.28,5.35-.88,5.06-3.71-.12-1.16-3-5.54-3.52-3.1a7.24,7.24,0,0,1-1.56-1,2.09,2.09,0,0,0,1.72-2.9c-.14-.41-.88-1.69-1.55-1.57-1.15.21-.26.62-.68,1.24-1.66,2.47-3.91.85-4.18-1.63.93-.28,1.84,1.88,3.11,1.51,1-.3,1.18-1.78.84-2.57-.24-.57-.85-1.38-1.56-1.06-.55.24-.27.87-.66,1.19-1.08.85-2.07,0-2.43-1.21,1.23.26,3.68.34,2.28-1.7-1.54-2.24-1.85,1.56-3.16.22-.59-.6,2.28-1.18.48-2.62-1.4-1.12-2,2-2.86.85,1.39-.34.62-1.42-.21-1.9-.29-.18-.86.07-1.24-.12s-.58-.7-.9-1c-1.06-.91-1.55-1.23-2.75-.45s-1.11,1.67-2.4.27c3.08-2.52,3.88-6.35-.52-8.22-2.15-.91-1.4.3-2.69,1.12-2,1.28-1.12-1.55-1.49-2.45-.44-1.06-2.15-2.28-3.35-1.6s.79,1.52.94,2.51c.39,2.56-4.43,5.45-6,2.92,1.58-.16,3.48.55,4.64-.94a2.52,2.52,0,0,0-.91-3.79c-2.75-1.33-1.14.95-1.13,1.92,0,1.56-2.09,2.41-3.39,2.11,1.28-.46,2.48-.61,2.37-2.23-.06-1-1.35-2.78-2.53-2s.47,1.72-.41,2.8-1.86-.11-3,0a4,4,0,0,0-.38-2.11c-.1-.28-.84-.25-.9-.53-.26-1.24,1.25-2.49.25-4a3.9,3.9,0,0,0-4-1c-1.19.47-1.23,1.24-2.57,1.61a2.43,2.43,0,0,0-2-2.88,2.7,2.7,0,0,0-1.56.13,4,4,0,0,1-.91.68l-.64-.41c-.56.09-1.24-.49-1.7.26-.55.91.22.49.38,1.32s.93.83.11,1.83a1.78,1.78,0,0,1-2.11.36c1-.91,2.25-3.5-.33-3.53-2,0-.74,1-.64,1.76.06.49.32,2.14-.94,1.48.16-1-.24-3.85-2-2.89-1.25.68,1.18,3.3-.28,3.2.56-1.72-1.46-2.69-2.09-1-.19.5.69,1.09.33,1.79-.09.18-.92.85-1.15.76-.62-.24.64-1.19.65-1.58-.08-.23-.17-.19-.27.13-.77-1.45-1.16.19-1.57.49-.64.47-2.18.59-2.79,1.36s0,2-.52,2.37c.14-.08-1.58-.39-1.52-.4-.71.07-1.32,1-2,.95-.08-.54.45-1.05-.09-1.5,1.68-.27-.27-2-.92-2.35a4.09,4.09,0,0,0-3.5.19c-1.89,1-.65,1.93-1.8,3.28-.59.69.08.5-.76.47-.45,0-1.29-.89-1.89-1S34.94,18.66,36.39,20c.34.3,2.2-.65,3.07-.19,2.4,1.25,1.68,5.2-1,5.75.47-1,1.52-1.9,1.31-3a2.6,2.6,0,0,0-2.82-1.75,1.92,1.92,0,0,0-1.59,1.09c-.43,1.13,0,.75.41,1s1.41-.38,2.12.3a1.55,1.55,0,0,1,.6,1.47,6.65,6.65,0,0,1-1.78,2.48c-1.5.6-.25-.79-.13-1.29.33-1.35-.6-3.08-2.07-2s.36,1.54,1.07,2.45c-1.7,1.38-.27,1.91-.08,3.55.16,1.33-.86,1.53.62,2.19.63.29,1.19-.26,1.91.24,0,2.21,7.06-2.45,7.88-1.86-.34,1,.24,1.4,1.12,1.1,0,1,.58,1.17,1.38.95.31,1.19.61,2.59,1.65,2.7.84.1,2.7-1.38,3.26-2a3.86,3.86,0,0,0,.65-4c-.22-.52-1.31-1.25-1.32-1.77a4,4,0,0,0,1.69-.88c.89,2,2.23,1.64,3.63,2.24.5.22.78.87,1.31,1,1,.23,1.13-.51,1.67-.4.87.16,2.35,1.69,2.65-.24.12-.72-.37-1.15-1.07-1.4-1.76-.63-.63.59-1.74,1.17-.11-.81-1.55-1.44-1-2.3,1.36,1.65,4.1.11,6-.44,2.33-.68,1.77.48,3.29,1.48-.67.72-1,2.15-2.23,2.09.2-.82.47-1.36-.29-1.74.18.09-1.42.33-1.29.26-1,.53-1.45,1.08-.61,1.82.5.45,1.14,0,1.62.26.33.18.62.66,1,.89-2.73.7-5.83.53-8.64,1.16a29.83,29.83,0,0,0-8,3.2,46.55,46.55,0,0,0-13.07,11A33.38,33.38,0,0,0,30.84,63.3c-.73,6.53,1,11.62,2.84,17.74a13.27,13.27,0,0,0-3.18-2.51c-2-.45-3.49.73-4.56,2.25a1.47,1.47,0,0,1-.57-2.32c.37-.47,1.62.51,1.41-1.27-.08-.65-.21-1.14-.93-1.26s-.71.26-1.13.52c-1.2.72-.35,2.14-1.06.13a7.77,7.77,0,0,1-.32-3.34c.2.07,1.41-1,2.24-1.28,2-.62,1.79.41,2.57,1.69s1.34,1,1.43-.59a4,4,0,0,0-2.13-3.78c1.3-1.67,2.6,1.43,2.69-1.86A4.65,4.65,0,0,0,27,62.53c-.95-.31-5.17,1.19-4.09-.46.48-.73,5.2-.53,4.73-2.23a.34.34,0,0,1-.52-.06.69.69,0,0,1,.79-.39c-.17-.3-2.41-.78-1.26-1.8.6-.53,1.28.74,1.64.71.94-.08,1.35-1.53,1-2.18-.87-1.73-1.37,0-2.25-.16-.38-.05,1-2.07,1.17-2.12,1.19-.35.67,1.23,1.72,1.4,1.59.26,1.91-2.55.69-3.17-1.42-.72-1.87,1.06-3,1.59a6.65,6.65,0,0,1,.64-3.09c.29-.5,1.58-1.2,1.46-1.89-.39.16-1.73,2-1.93,1.9-.82-.24-.36-1.84-.11-2.2,1-1.4,3.49-1,4.3-.73,2.12.54,2.88,2.47,4.37-.51.36-.71.93-4.71-.83-3.88.46.05.45.26,0,.62s-.56.65.05,1c-.27.67.4.28-.21.95a5.47,5.47,0,0,0-1.11.26c-1.26.12-.92.08-1.66-.5-1.13-.87-.16-1.24-1.66-.63-1,.4-2.86,2.51-3.64,2.48.29-.45,1.1-1.38,1.15-1.87-.84-.26-1.72,2.37-2.5,1.82-.62-.44.41-1,.25-1.57-.32-1.16-2.76-.22-3.63-1.26A3.32,3.32,0,0,1,19.5,45.7c-1.06-.33-.62-.4-.48-1.52s.64-2.36-.69-1.74a1.13,1.13,0,0,0-1.09-1.58c-.74-.07-2,1.41-2.2,1.31-.24-.42.36-1.26,0-1.52-.17-.14-.52.34-.67.41a43.38,43.38,0,0,1,4.07-6.77c.88-1.23.79-1,1.5-.7.21-.46-.19-1.08.55-1.31.28.4.07,1.36-.48,1.34a3.78,3.78,0,0,0,.7.17,13.48,13.48,0,0,1,2,.34c.36,0,.68.27,1.1.21-.23-1.75.4-1.14,1.21-.28a4.83,4.83,0,0,1,1.31,3.37c.22-.52.39-.74.95-.51a4.9,4.9,0,0,1-1.77,1.44c-2.07.82-.95-.65-1.78-.58-.26,1.09-.76.86-1.59,1.39-.12.07-1.25.95-1.74,1.21a7.45,7.45,0,0,0-1.81-2.24c-1.44-.7-1.38.09-.82.9-.13-.19,1,.1,1.08.17s.68,1.15.84,1.45c.51.93-.51,1.54,1.37,1a10.73,10.73,0,0,0,.64,2.55c.57-1.41,2.21-2.48,1-3.89,1.53-1.84,1,.3,1.21.42,0,0,0,.62.23.76s1.19-.56,1.45-.61c1.38-.27,1.86.39,3.14.85l.26.52a1.36,1.36,0,0,0,.78-.29c.15.07.4-.38.69-.23-.11,1.25-1.11,1.41-.9,3,1.51-.56,1.81-.88,2.09-2.17.15-.66-.25-1.75-.09-2.06-.47.2-1.33.09-1.44-.47s.8-1,.85-1.54c.08-1-.61-.14-.84-.57a6,6,0,0,0,.37-1.13c-.41.21-2.39,1.84-2.7,1.67-.8-.46,1.08-2.48,1.32-3-.31-.13-1,.91-1.09,1a8.09,8.09,0,0,1-.71-3.13c.09-.44,1.18-1.44.83-1.87-.2-.24-1.41.87-2,.49s-.42-1.74-.08-2.29c.71-1.19,2.13-.87,2.83.46.45-.55,1.09-.07,1-.79-.28.36-.63,0-.67-.3.14-.22.66-.07.69.28a.51.51,0,0,0-.67-.57c1-1.94-.91-3.3-2.86-2.67a4.9,4.9,0,0,0-2.24,1.93c-.44.94-.06,1.15,0,2.09,0,.55.13,1.68-.25,2.13-.69.81-.19,0-.71-.24a3.48,3.48,0,0,1-.65-.68c-.79-.34-1.51.17-2.29.05,2.69-4.37,6.8-7.2,10.76-10.34a58.23,58.23,0,0,1,18-9.49C63.23,6.87,79.53,8.5,92.75,15.29A56.87,56.87,0,0,1,118.43,41.9c3.71,8.16,6.24,17.91,5.34,26.8a87.9,87.9,0,0,1-1.36,9.12c0,.07-.46,3.1.43,2.35C123.52,79.59,122.92,79,123,78.35ZM89.71,111.43c-.41.43-.17-.17,0,0ZM96,110.25c0,.33-.12.37-.44.27C95.65,110.3,95.82,110.26,96,110.25Zm1.76-3.07a.79.79,0,0,1-.9.37C96.31,107.33,97.32,107.22,97.78,107.18Zm-5.06-7.74c.31-.11,0,.14,0,0Zm.51,1.47c-.13.33-.16.34-.53.17C92.84,100.87,93,100.89,93.23,100.91Zm-.36,2c-.45-.15.06-.2,0,0Zm.2.9c.28,1-1.66,1.55-2.62.64C91.08,103.56,92.43,101.58,93.07,103.77Zm-2.44-2.86c-.24.16-.36.15-.36,0C90.52,100.69,90.64,100.71,90.63,100.91Zm-7,13.34c.37-.15,0,.09,0,0Zm.34-2c.41-.52.41-.52.65-.38C84.41,112.07,84.29,112.32,84,112.28Zm3.51,2.45c-1.1,1.73-2.29-.11-2.41-1.35C86.15,113,88.78,112.65,87.46,114.73Zm0-6.7a1.44,1.44,0,0,0-.16,1c-.3,1-1,2.23.25,2.61-.4.47-2.09,1.24-2.61.79a3.24,3.24,0,0,0,.86-2c-.44.44-.36,0-.84.7-.33-.5-1.67,1.19-1.9,1.6.48.1-.45,1-1,.18-.17-.29.35-1.38.46-1.59a4.26,4.26,0,0,1,1.4-1.6c.09.31.37,0,.06,0a5.55,5.55,0,0,1,.7-.41c-.59-.06.87-.93,1-1.15-.77,0,1.32-1,1.44-1,.05-.26,1.28-.55,1.58-.72C88.5,107.29,87.82,107.34,87.41,108Zm-3.32,1-.19.32C83.76,109.09,83.88,109.07,84.09,109.05Zm.19-.07a1.43,1.43,0,0,1,.8-.8C85.1,108.62,84.83,108.88,84.28,109Zm-2.66-5.33c-.63-.24-.29-.15-.24-.39s.13-1.28-.07-.88c0-.84-.92-2.1-.34-2.93.33-.46.42-.72.71.1s-.58,2.87,1,1.71c.84,1.85,2.89.45,3.55,1.73-.66.67-4.38.84-4.39,1.89,2.58,0,4.58-1.8,7-2-.84,1.31-3.68,1.78-5,2.42-.84.39-1.22.77-2,1.09-1,.46-.88.42-1.8.06.72-.64-.15-1.5,1.16-2.2-.1-.29-1.08,0-1.27,0C80.11,103.66,81.28,104.13,81.62,103.65Zm-2.5,3.66c-.39.9,6.27-1.87,6.67-1.83,3.27.31-3.26,3.65-3.85,4.33a1.46,1.46,0,0,1,1.33-.28c-.25.55-1.51,1.36-2,1.78-.28.22-.83.12-1,.29-.49.49-.43,1.54-1.14,1.76-.25-.53-1.25-1.68-1.26-2.29,0-.31.64-.3.69-.68.14-1.12.08-1.53-1.21-1.94a2.38,2.38,0,0,1-.11-.92.3.3,0,0,1-.46,0C76.51,106.91,79,107.31,79.12,107.31Zm-1.79,5.38c.31.76.19,2-.85,1.9C76.61,114.23,76.89,112.9,77.33,112.69Zm-1-7.64c.14.19-.16.2,0,0Zm-.64-6.52a.4.4,0,0,1-.58-.16C75.56,98.08,75.87,98.46,75.74,98.53ZM105,77.17q-.32-.24,0-.54Q105.43,76.84,105,77.17Zm.13-.76c.34-1.11-1,.91.4-1.35.26.31-.23.62-.07,1,.42-.28.5-.74,1.08-.68C106.55,75.78,105.37,76.44,105.11,76.41Zm2.32-.23c.29-.17.39-.1.27.19s-.68-.17-.84-.38C107.11,75.83,107.3,75.89,107.43,76.18Zm1,9.24c-.13-.14-.06-.23.23-.26C108.66,85.29,108.58,85.37,108.42,85.42Zm-7-.86c0-.22.05-.34.28-.36S101.46,84.56,101.46,84.56Zm.31,6.65.45-.44C102.22,91,102,91.4,101.77,91.21Zm16.41-.77c-.15-.1.14-.19,0,0Zm-10.64,12.43a4.45,4.45,0,0,1-1.11,1.56C106.28,104,107.05,102.36,107.54,102.87Zm-.81-1.59c.27.4,0,.62-.23.92C106.21,101.76,106.53,101.56,106.73,101.28Zm-2.45-8.43c.18-.15.4-.41.5,0C104.47,93.08,104.31,93.06,104.28,92.85Zm14.31-8.48c-.28-.24.13-.33,0,0Zm-2.43-31.46c-.64.69-1.65.05-1.79-.75A3.19,3.19,0,0,0,116.16,52.91ZM113.64,43c.39-1.28,1.12-.32,1.88.3C115,44.53,113.13,44.74,113.64,43ZM35.84,21.79c.12-.33.12-.33.53-.3A.52.52,0,0,1,35.84,21.79Zm-1.76,3.14c.26-.89,1.92,0,0,0Zm1.29,3.28c.12.2-.17.16,0,0Zm20-10.72c-.13.37-.39,1.66-.84,1.87C54.24,18.7,54.34,17.31,55.39,17.49ZM47.9,19.78c-.06.5-.22.61-.48.32A.43.43,0,0,1,47.9,19.78Zm-3.57-2.15c.78-2.26,2.25-.27,2.52,1C45.73,19.5,43.67,19.5,44.33,17.63ZM45,23.17c-1.5-.47,1.45-2.11-.64-2.76.61-.37,2.14-1.37,2.75-.72-.58.24-.73,1.22-1,1.74A.72.72,0,0,0,47,21c.56,1.29.9-1.82,1.88-1.53a.39.39,0,0,1-.27-.6c.57.87,1-.28,1.15,1a3.8,3.8,0,0,1-1.71,2.55c-.36.06-1.43,1-.35.82-.41.36-.79,1-1,.4.3.05.43-.18.59-.35l-.59.34h0c-1.07,1.38-2.1,1.33-3.53,2.14C43.47,24.63,44.45,24.16,45,23.17ZM47.79,23l.2-.28C48.1,23,47.94,23,47.79,23ZM43.9,27.75c.13.13-.15.19,0,0Zm-1.42-7.21-.29.14C42.21,20.5,42.27,20.42,42.48,20.54ZM38,32.29c-.14-.42,0-.8.4-.78.11.3.39,1.07.69,1.1A2.13,2.13,0,0,1,38,32.29Zm.4-.78a.7.7,0,0,1,.23,0C38.54,31.61,38.46,31.6,38.41,31.51Zm.21-.38c.23-.3.23-.3.57-.15A.44.44,0,0,1,38.62,31.13Zm.57-1.79c-.44-.13.05-.21,0,0Zm1.86-1.17c-.75,2.5-1.74.23-2.64-.11C39,27.05,41.49,26.69,41.05,28.17Zm.21,3.11c.22-.26.34-.29.36-.08Zm.61-6.15a2,2,0,0,1-2.07.21,12.15,12.15,0,0,1,1.36-2c.26-.46.29-1.38.78-1.9.39.63-.31.9-.27,1.52.84-1.05,1.28.85.77,1.39C43.51,24.67,42.23,24.93,41.87,25.13Zm8.72,3.56c.21.32.16.4-.13.25,0-.19-.46,0-.47.19.76.41,0-.09.46-.18,0,.66,1.12,3.14.39,3.81-1.23,1.15-.52-2-.58-2.06-.37-.59-.42-.14-1.06.06-.55-1.23-1.9-1.41-3.17-1-1.16-2.11,4.12-1,4-2.55a12.33,12.33,0,0,0-3.9.76c-1,.37-2.09,1.2-3.15,1.26.91-1.1,3.16-1.72,4.5-2.2a16.41,16.41,0,0,0,3.81-2c.15.55.57.73-.09,1.08,1.46.47-.53,1.62-.5,1.79.07.35,1-.11,1.28.07-.41.35-.54,0-1,.41a.79.79,0,0,0-.73.06C50.31,28.91,50.41,29,50.59,28.69Zm2.09-4.3c-.69.5-2.67.69-3.49,1s-2.7,1.39-3.38,1.21c-2.58-.65,3.36-3.71,4.17-4.22-.1-.19-1,.25-1.31.26,0-.47,1-1,1.41-1.32s1.23-.61,1.51-.88.58-1.64,1.17-1.7c.42.76,1.15,1.67,1.06,2.42,0,.37-.69.65-.66,1.21s1.9,1.71,1.42,2h0c-.08,0-.23.25,0,0a5.52,5.52,0,0,1,.53.17C55.38,25.21,52.79,24.51,52.68,24.39Zm2.54-.13c.47-.06,0,.08,0,0Zm.3,2.79c-.14-.24.14-.31,0,0Zm44.89,23.17c.36-.38.85-1.09,1.38-1.29.16-.06.61.3.68.26.7-.46.46-.34.68-1.27a25.47,25.47,0,0,0,.51-4.49C104.34,43.37,105.12,51.31,100.41,50.22Zm3.81,15.62c1-.17,1.07-.23,1.66.64C105.72,66.49,104.19,66.28,104.22,65.84Zm1.9-2.6c-.24,0-.38-.13-.42-.41l.44-.1A.37.37,0,0,1,106.12,63.24Zm1.12-1.58-.76.16c.09-.28.3-.34.77-.17a14,14,0,0,0,2.43-3,3.71,3.71,0,0,1-1.9,2.86c-.28,1.14-.24,1-1.47,1.05A7.66,7.66,0,0,0,107.24,61.66Zm.66,4.12c-.77,1.47-2.12-1.16,0,0Zm.27-.23c0-.7,1-3.27,1.92-3.43A5.51,5.51,0,0,1,108.17,65.55Zm-.32,9c.08-.21.08-.21.33-.15Zm-.12-.38a1.59,1.59,0,0,1,1.55-.78C109.09,73.54,107.83,74.32,107.73,74.2Zm1.82-.08c.4.39-.18.18,0,0Zm-1.62-.64c-1.06-1.27,2.26-1.73,2.34-.93C109.51,73.1,108.68,73,107.93,73.48ZM109.81,68a11,11,0,0,1,1.39-3C111.27,66,111.12,68,109.81,68Zm.49-13.44c1.38.14,2.14-1.32,2.18.54C112.53,57.84,110.44,56.4,110.3,54.57Zm1.93,8.59c0-.12-.3-1.61.13-1.43S112.39,63,112.23,63.16ZM111.7,78c-1.22-.06.3-3.08.55-3.44C113.28,74.39,112.6,78,111.7,78Zm5-4.06c-.29.47-1.79-.48-2-.69C115,73.05,117.19,73.1,116.69,73.89Zm.91-9.26c0,3.18.68.41,1.25.13.9-.43,1.88,1.55,1.36,2.21-1.23,1.56-5.34-1.59-5.24-3.11A4.86,4.86,0,0,1,117.6,64.63Zm-3.67-7.22c1.13,1.19,1.54,2.85,2.48,4.17C116,62.13,112.9,58.74,113.93,57.41Zm-.42,6.92A28.66,28.66,0,0,0,114.77,68C113.42,68.16,113.44,64.33,113.51,64.33Zm-.38,5.15c.3.72,1.63,1.46,1.77,2.07.21.94-2.06-1-1.87-1-.63-.12-1.34.82-1.91.61-1-.37.23-1,.48-1.44a9.57,9.57,0,0,0,.85-3.25C113,67.35,112.74,68.55,113.13,69.48Zm.37-25a7.87,7.87,0,0,1-2.6-.38c-.56-.46-1-1-1.58-1.5a14.77,14.77,0,0,1,2.57.16C112.59,43.09,112.78,43.7,113.5,44.52Zm-4.07-6.9a32,32,0,0,1,3.24,2.07,4.94,4.94,0,0,1-1.86.52l-1.1.47a4,4,0,0,0-1.23-.25C108,39.81,108.72,37.59,109.43,37.62Zm2.34,8.93c-2.38.3-3.62-3.64-4.55-5.13C107.54,41.19,111.29,46,111.77,46.55Zm-2.56.17a22.54,22.54,0,0,0,2.61,2.65c-.94.87-1.27-.66-2.39.17-.26.18-.22,2.1-.88,1.63a34.49,34.49,0,0,0-.17-3.79,35.88,35.88,0,0,0-1.5-3.36C108.13,43.68,108.61,45.84,109.21,46.72ZM106.4,49.3a29.83,29.83,0,0,0-.7-3.75c-.13-.43-1.49-3.13-.42-2.49C106.61,43.86,107.53,48.15,106.4,49.3Zm-4.05-17.5c3.32-.53,4.65,5.2,3.37,7.4-1.94,3.32-6.67.28-7.12-2.56,1.91.71,3.73,1.26,4.53-1.22A3.59,3.59,0,0,0,103,33C102.84,32.46,102.26,32.31,102.35,31.8Zm-.67,3.1c-.85,1.67-2.68-1.33-3-2C99.57,32.26,102.28,33.74,101.68,34.9Zm-.7-5.42a.21.21,0,0,1,0-.34A.52.52,0,0,0,101,29.48Zm.4-.66c-.24.06-.39.17-.43.32a1.81,1.81,0,0,0-1.62,1.17c-.41-.64-.71.41-1.34.24C98.43,29.41,100.32,27.71,101.38,28.82ZM97.44,35.7c-.22.13-.32.11-.31-.07C97.35,35.5,97.46,35.52,97.44,35.7ZM97.36,29c-.22.79-2.12,3.31-2.7,3-.34-.2-1-2.31-1.44-2.75s-2.17-1.39-2-1.8C93.41,28.23,94.89,29.2,97.36,29Zm-.74,3.66c-.08.52-.28,4.76-1.45,2.6C94.8,34.61,95.63,32.19,96.62,32.69ZM89.1,28c-.57-.62-1.91-1.58-2.24-2.34.91.08,3.22,2.25,3.85,3a4.09,4.09,0,0,1,1.17,2.36A25.45,25.45,0,0,1,89.1,28Zm.43,2.15c.16.09-.13.22,0,0Zm-2.41,1.41c.24-.31.8-.62.84-1.06s-.83-.58-.7-1.19c.26-1.24,1.72,0,2.06.58-.28.53-.46-.18-.8-.05C89.2,31.77,88.88,31.93,87.12,31.51Zm1.63-6.57c.57-.05,4.88,1.85,5.78,2A8.4,8.4,0,0,1,88.75,24.94Zm4.35-2.41c.8.26,2.84.64,1.25-.76.27-.34,1.92-1,2.32-.74,1.66,1.07-4.7,5.18-5.28,3.54A2.55,2.55,0,0,0,93.1,22.53Zm-2.64-.36c-.89.75-2.91,1.08-3.72,0A20.06,20.06,0,0,1,90.46,22.17ZM88.53,32.66c-.15.75-1,1.77-1.84,1.7C86.94,33,87.12,32.66,88.53,32.66Zm-2-10.48c-.27.35-.36.36-.59.05Zm-4.16-.05c1.2-.16,2.79,1.84,1.17,2.24-.18-.76-.78-.24-1.33-.77A1.93,1.93,0,0,0,82.32,22.13Zm1.76,2.95c.12-.39.14.05,0,0ZM84,24.64c-.17.42-.63,1.53-1.26.45l.69-.52Zm-5.24-4.71c.41,1.68-2.19,1.58-3,1.33-1.11-.34-3.06-.12-4-.61s-.46-.68-1.06-1.48c.48-.57,2.23.14,2.86.27a17.2,17.2,0,0,0,2.76.61C76.94,20.08,78.24,19.63,78.77,19.93Zm-.57,5.21c-.08-.16,0-.25.18-.25C78.42,25.24,78.36,25.32,78.2,25.14Zm-.51.85a.84.84,0,0,1-.39-.93C77.85,25.28,77.69,25.5,77.69,26Zm-.59.71-.2.34c-.15,0-.21-.08-.19-.23Zm-8-4.87c.58-1.51,7.48,1.2,7,1.91C76.26,23.52,69.77,21.86,69.11,21.83Zm4.13,5c.07-1,.27-1.57-1-1.69l-.13-1.06C72.5,23.86,75.83,26.51,73.24,26.81ZM73,29.5c-.2-.94,0-1.76,1.15-1.77A1.65,1.65,0,0,1,73,29.5ZM74,19l.35-.08C74.31,19.08,74.07,19.18,74,19Zm-3-.62c0-.61,4.29.25,4.56-.75.35.31,1.1-.06,1.49-.11C76.79,19.52,72.1,18.49,71,18.37Zm3.59-1.88c-.15-.12.18-.2,0,0Zm.7.48c-.2.15-.12-.09,0,0Zm0,.53c.18-.31.22-.32.91-.46C76.05,17.46,75.62,17.31,75.32,17.5Zm-1.21-3.6c.06-.87,1.78-1.45,1.89-.27C76.05,15.54,74,15.18,74.11,13.9Zm1.14,1.46c-.11.52-1.56,1.14-.76,1.26-.33.25-.44.23-.31-.06a4.71,4.71,0,0,1-2.16.83C72.58,16.14,73.73,14.94,75.25,15.36Zm-15.56,5c-.47.77-3.8,2.66-3.5.81C56.38,20,59,20.22,59.69,20.38ZM57.25,22.5c-.41-.19.24-.39.41-.33Zm.33.23c-.13.09-.21.09-.25-.06Zm-.77-9c-.17.39-.51.23-.86.29A.79.79,0,0,1,56.81,13.68Zm3,15.69q-.3.21-.45-.15Q59.94,29,59.85,29.37Zm6.94-8.76c-.12,2.23-2.83,3.56-4.68,4.08-.33.09-.61.36-.94.41s-.72-.51-1.17-.32-.26.74-.74,1.07a.58.58,0,0,1,.34.52,8.78,8.78,0,0,0-1.94-.08c-.76-.09-1.53,0-1.84-.9-.21-.61.1-1.81.83-1.09l-.4.3c.44,0,2.66-.27,1.92-.7a10.11,10.11,0,0,0,2.73-1.24c1.8-2,.42-4.43-2.13-4.43C58,16.75,63.31,16.65,64.08,17A4,4,0,0,1,66.79,20.61ZM65.3,14.37c1.57-1.06,4.09-.85,3.08-3.35,1.68-.9,1.73,2.06,1.13,2.92C68.26,15.72,66.88,15.29,65.3,14.37Zm6,.05.43.18c-1.62,1.39-2.24,4-4.11,1.26C68.84,15.21,70.23,15.34,71.3,14.42ZM67.68,24.91c1.59-2.34,1.52-.15,3.51.46-.07.19-.29,1.29-.74,1.28a.81.81,0,0,1-.3-.62A10.59,10.59,0,0,0,67.68,24.91ZM71,27.15c.48,0,0,.14,0,0ZM71,29.75c.42.09-.27.86,0,1a2.9,2.9,0,0,0,1.43.48,5.24,5.24,0,0,0,3.74-.76c.58-.49,1.75-2.39.81-2.76.18-.24.5-.78.54-.81.33-.32.13-.44,1-.44-.18,1,.34,3.74,1.93,3.76a1.27,1.27,0,0,0,1.15-2.1c-.28-.39-1.61-1.36-1.37-.3-.8.82-.36-1.05-.35-1a.38.38,0,0,1,.3.38c.52-.88.48,0,1.3.07-.59-.73-1.23-1.6-.1-1.74,0,0,2.51.57,2.66.64,1.32.68,1.69,3.17.78,3.85a3.38,3.38,0,0,0-1.21-1.57c.52-.52,0-1.44-.69-1.14s.16,1.13.13,1.65c-.19,2.71-2,.94-2.88,1.54-1.9,1.27,5.35,4.77,4.7-.15.35-.25.65,0,.89.73-1.36,1-.38,1.31-.88,2.26.24.27.22.47,0,.6a2.14,2.14,0,0,0-1.1.3c-.23,1.34,1.78,2,3,2.33,2.25.65,3.68-.1,4.9-2.13.44-.73,1.28-2.39,1.92-.43.34,1-.82,3.76.91,4.57.74.34,1.62-1,2.31-.71.07,0,1,2,1.13,2.2A8.25,8.25,0,0,0,100,42.36c.58.38,1.95.77,2.11,1.26a15.48,15.48,0,0,0-.5,2.35c-.36.57-.62.94-1.29.94.65-1,.19-4.18-1-4.76-.38.23-.87,5.28-2.72,2.63-1.31-.08-.19,2,.27,2.44.9.88,2,.19,2.59.68-.88.83-1.62-.17-2.37,1.09-3.2-5-6.79-9.41-11.94-12.57-5.52-3.39-11-4.32-17.31-5.23C68.73,31,70.43,29.63,71,29.75ZM56.36,33.36l.32.34a.37.37,0,0,1-.43.19C56,33.71,56,33.53,56.36,33.36ZM28.68,98.61c.15.45,1.12,1.22.85,1.67-.47.8-2.72-1.53-3-1.87-1.3-1.93-1.47-5.74,1.07-6.75s5.09,1.51,5.67,3.77c-1.28-.45-2.23-1.14-3.51-.32A3.22,3.22,0,0,0,28.68,98.61Zm1.5-1.37c.7-1.88,2.71,1.3,3,1.89C32.3,99.6,29.69,98.55,30.18,97.24Zm.34,5.92c.22-.09,1.16-.67,2-1.11,0,0-.09,0-.14,0,.06-.26.15-.32.27-.17a.48.48,0,0,1-.12.21c.64-.33,1.21-.58,1.37-.46C33.35,102.3,31.42,104.81,30.52,103.16Zm4-.21c.39-1.46.62-.8,1.54-1.76.47-.5.23-1,1-1.37.73,2.22,1.66,3.08,3.45,4.6-.18.27-2-.86-2.34-1C36.92,103,35.78,103.29,34.55,103Zm-.21-6.51c.2-.12.31-.2.46,0Zm.94,2.94c.06-.47.46-4.92,1.41-2.62C36.91,97.28,36.3,100,35.28,99.38Zm7.81,7.77c-.94,0-2-.86-2.9-1.19a20.72,20.72,0,0,1-3-.8C38,105,43.3,106.22,43.09,107.15Zm-4.31,2.41c-.81-.3-2.79-.59-1.25.73-.73,1.12-3.12,1.32-2-.74.7-1.3,3.54-2.77,5-2.11C39.51,108.21,39,108.34,38.78,109.56Zm2.62.32a3.08,3.08,0,0,1,3.58-.1C44.52,109.8,41.63,110.2,41.4,109.88ZM45,106.47c-.58-.31-5.57-4.08-4.77-5C40.75,102,45.08,106.34,45,106.47Zm-.6-3.26c-.6.42-1.48-2.43-1.25-3,.18,0,1.54.18,1.59.45C43.3,101.77,45.29,102.56,44.37,103.21Zm-1-3.81c.29-.75,1-1.73,1.9-1.73C44.9,99,44.79,99.4,43.32,99.4Zm2.17,10.45c.29-.3.3-.3.54,0Zm4.13.14a3,3,0,0,1-2.08-1.64,2.93,2.93,0,0,1,2.25.11A1.53,1.53,0,0,0,49.62,110Zm-3.06-7.49c.43-.49,1.83,2.06,2.17,2.51.55-.18.7.12.47.9C46.82,106.31,47.17,104,46.56,102.5Zm5.63,2.76c-.38.1-.33-.32-.35-.58l.32-.17C52.45,104.77,52,105,52.19,105.26Zm.91,6.32a10,10,0,0,1,1.33-1.06c.93-.27,2.07.45,3.09.65,1.2.25,4.1-.19,3.63,1.81-1.51.3-3.27-.59-4.78-.83C55.53,112,52.92,112.55,53.1,111.58Zm1.1-5.91s.65,1.08.36,1.35C54.21,106.91,53.46,105.67,54.2,105.67Zm4.45-.36c-.3,1.73.86,1.13,1.06,2.66-.49.82-2-2.36-2.08-2.49A1.27,1.27,0,0,1,58.65,105.31Zm.17-2.72c.24,1-.08,1.62-1.15,1.76A1.78,1.78,0,0,1,58.82,102.59Zm.32,7.09a34.72,34.72,0,0,0,3.63.59c-.13.91-3.35-.11-3.91-.24s-3.69-1.71-3-1.77S58.28,109.43,59.14,109.68Zm-2.44,3.7c.07,0,2-.06.84-.28.2-.2.33-.17.39.08a14,14,0,0,0,3,.59c-1.33.43-3,.09-4.37.35a7.47,7.47,0,0,1-1.75.4C55.06,113.69,56,113.6,56.7,113.38Zm.85,2c.2.14-.12.19,0,0Zm-1-.73c-.21.31-.45.4-.69.26C56,114.62,56.29,114.74,56.5,114.61ZM56,119.06c-1.42-4.49,4.38.32,0,0Zm.6-2.36c.31-.4.73-.7.66-1.2.14.1.16.21,0,.32a6.7,6.7,0,0,1,2.62-1.19A3,3,0,0,1,56.58,116.7Zm15.7-5c.13-1.07,3.23-2.37,3.54-1.21C76.18,111.87,72.87,111.93,72.28,111.69Zm1.85-1.91c.33.17.41-.4.76-.16C74.77,109.67,74.13,110.45,74.13,109.78Zm1,8.55c.2-.38.51-.1.74-.22C75.6,118.45,75.55,118.47,75.14,118.33Zm-3.09-15.65c.23-.11.34-.08.32.08C72.11,102.89,72,102.87,72.05,102.68Zm0,4.56c.25,0,.68.27.87,0-.54-.46-.24,0-.87,0,.39-.42-.13-.8.62-.76-.06-.09-.65-.81-.36-.92a3.85,3.85,0,0,0,1,.41c.79-.07,1.41-.55,2.13,0s.61,1,.45,1.82c-.07.38-1.31.15-.33-.3a5.27,5.27,0,0,0-2.22.47l.12.14a3.6,3.6,0,0,0-3,1.94c-.59,1.12-.7,2,.25,2.92.62.6,2.09.56,2.43,1.14-2.15,2.5-8.18,1.25-8.22-2.41C65,108.25,69.57,107.44,72.08,107.24ZM66.5,117.78c-1.82.77-3.7.84-3,3.24-1.32,1-2-2.83.1-3.85C64,116.93,66.79,116.67,66.5,117.78Zm-6.39-.3c1.73-1.27,2.14-4.16,4.14-1.3A12.2,12.2,0,0,1,60.11,117.48Zm4-10.26c-1.5,2.25-1.55.06-3.45-.54l.67-1.31C61.39,106.36,63.46,106.93,64.14,107.22Zm-3.51-2.3c.19-.14.35-.13.56.11Zm-28.11-15c.78-.47-.14-2.39,1.09-3,.84-.41,1.37.6,1.9.36,1-.44-.26-2.21-.7-2.57a2.31,2.31,0,0,0-2.39-.44c.23-.83,1.71-.25,2.32-1.18A38,38,0,0,0,46,95.2c5.61,3.69,11.49,4.85,18,5.68-.62.13-2.7,1.63-2.86,1.57-.48-.15-.11-.83-.22-.88a4.13,4.13,0,0,0-.94-.68,5.72,5.72,0,0,0-3.3.17c-1.55.63-1.19,1.89-2.13,2.82-1.4,1.38-1.3-2.65-3.43-2.09-2.73.73.39,3.54,0,4.81-1.47.21-2.06-3.18-1.77-4.13.79-2.53,1.53-.18,2.69-1s-1.28-2.28-2-2.37-4.11,1.58-2.73,2.48c-2,.35,0-1.36,0-1.48,0-.33-.26-1.59-.2-1.74.42-1.1,2.33-.34.57-1.89a6.79,6.79,0,0,0-4-1.38c-2.47.25-2.07,2.3-3.54,3.33-2.33,1.63-.49-4-2.31-4.89-.84-.4-1.81.92-2.42.62-.37-.18-1-2.1-1.39-2.54a8.87,8.87,0,0,0-4.28-3c.69-1.24.32-3.48,1.92-3.48C30.88,86.23,31.29,89.3,32.52,89.89Zm-4.76-5.33c.48-1.9,1.61-3.31,3.7-2.71-1.4,1.46-2.69.65-3,2.66a27.26,27.26,0,0,0-.23,4.1C27.13,88.87,27.57,85.3,27.76,84.56Zm-2.26-1.7A24.93,24.93,0,0,0,26.31,87c.11.33,1.5,3,.15,1.9C25.68,88.25,24.56,82.5,25.5,82.86Zm2.2-16.64c-1,.15-1,.37-1.65-.54C26.51,65.42,27.41,65.92,27.7,66.22Zm-1.5,2.92c-.23.21-.4.16-.53-.17C25.85,68.72,26,68.77,26.2,69.14Zm3-16.39c.56.11,0,.14,0,0Zm-.09.65c-.23-.36.21-.35,0,0Zm7-6.84c-.2.11-.21-.14,0,0ZM15.93,44.37c.23.16-.15.16,0,0Zm-.75,13.81c.29-.5,1.79.47,2,.69C16.82,59.05,14.75,58.94,15.18,58.18Zm1.29,6.41c-.3-.28.15-.13,0,0ZM14.3,67c-.32-.34.24-1-.49-1.15s-.25,1.49-1,1.56c-1.09.1-2.23-2.66.24-2.55,1.94.08,2.9,1.78,3.9,3.08C16.74,69.16,14.51,67.24,14.3,67Zm1.48,12.12c.49-.85,1.56.28,1.8.72A9.14,9.14,0,0,1,15.78,79.12ZM18,74.62c-.5-.38-2.68-3.73-2.44-4.26C16.8,70.52,18.88,73.34,18,74.62Zm.41-6.85a30.19,30.19,0,0,0-1.27-3.72C18,64.05,18.92,67.63,18.38,67.77Zm.37-5.19c-.13-.32-1.8-1.87-1.79-2,.11-1.15,1.91,1,1.88,1,.88-.27,2.37-1.21,2.17.06-.06.42-.93,1-1.14,1.5a9.35,9.35,0,0,0-.42,2.37C19.08,65.48,18.91,62.94,18.75,62.58ZM20,54.21c1.48,0,0,2.85-.37,3.36C18.53,57.4,19.3,54.22,20,54.21ZM19.5,76.56c.48-2.4,2.36-.44,2,1C20.1,77.26,19,78.92,19.5,76.56ZM19.66,69l.09,1.29C19.1,70.52,19.28,68.84,19.66,69Zm1-2.05c-.07-.66.18-3.28,1.45-2.86C21.93,64.55,21.11,66.9,20.69,67ZM18.24,89c-.35,1.34-1.16.33-1.9-.29C17,87.68,18.7,87.2,18.24,89Zm.15-1.43a5.59,5.59,0,0,1,3,.7c.43.3.71.83,1.15,1.14A12.47,12.47,0,0,1,20,89.26C19.31,89,19.1,88.38,18.39,87.56Zm4.46,7.06c-1.27-.57-2.22-2-3.67-2.18a5,5,0,0,1,3-1.06C24.54,91.47,23.25,93.06,22.85,94.62Zm-2.7-9.06c1.64-1.15,4,4.32,4.53,5.08C24.35,90.84,20.63,86.16,20.15,85.56Zm3.28-4.64c-.6,2.78.43,4.64,1.56,7.09-.79.76-1.38-1.09-1.63-1.52A10.66,10.66,0,0,0,20,82.74c1-.95,1.39.71,2.42-.21C23.05,82,22.27,80.8,23.43,80.92Zm.28-9.72c-.32.47-.86,2.44-1.44,2.44-.26-.83,1-3,1.79-3,0-.88.31-1.2,1.05-1C24.74,70.37,24.13,70.61,23.71,71.2Zm1.4-4.44A5.69,5.69,0,0,1,24,66.34C24.5,65,25.11,66,25.11,66.76Zm-1.41-.13c.07,1.36-.28,1.12-1.05,2.05-.32.38.23,1.37-.83,1.24C21.85,69.65,23,66.27,23.7,66.63Zm-2.07-7.09c0-.6,1.73-.48,2.07-.76.79-.66-1,.1.4-1a7.13,7.13,0,0,1-.19,1.62C23.72,59.59,21.58,60.29,21.63,59.54Zm.41-1.8c.28-.05.45.07.25.26Zm.65.88c.18-.15.32-.38.64-.3C23.22,58.67,23,58.69,22.69,58.62Zm1.39-.89c-.37,0-.35-.09,0,0Zm-1.54-.06a1.47,1.47,0,0,0,.18-.82c.64-.07.91-.63,1.35-.5l-.45.37c.28,0,.88-.21,1,.14C23.88,57.12,23.34,57.67,22.54,57.67Zm4.36-2.73c.3.21-.08.5-.21.31Zm-.54.6c.73.29.32.9.05,1.46-.44-.6.72-.57-.14-1,.06.48-.5.78-.9.72C25.43,56.21,26.2,56.05,26.36,55.54Zm-2,0,.71.52C24.74,56.23,23.94,56,24.35,55.56Zm-1.62-7.39c3.67,1.39,2.5,6.88,0,8.67h0c-.28,0-.59.26-.78.25.33-1.34,2.15-4.52-.67-5.2-1.56-.37-3.05,1.32-3.89,2.31-.37.44-.2,1.17-.84,1s-.38-1.79-.34-2.23C16.44,50.23,19.82,47.07,22.73,48.17Zm-3-8.1c-.06.15-.21-.14,0,0Zm10.27.7a.53.53,0,0,1-.43.49A3.35,3.35,0,0,0,30,40.77Zm-2.52-4.22c.18-.51.21.05,0,0ZM27.67,39c-.17.45-.37.53-.6.23A1.56,1.56,0,0,1,27.67,39Zm1.77-9.35-.33.18C29.14,29.71,29.19,29.6,29.44,29.68Zm-4.26,1c-.23-.28-.09-.62.33-.77C25.5,30.18,25.53,30.49,25.18,30.64Zm.23-3c.3.77-.29,1.38-1,1.65A4.14,4.14,0,0,1,25.41,27.62Z"/>
      <path class="cls-2" d="M20.73,33.79h0Z"/>
      <path class="cls-2" d="M81.38,103.24v0Z"/>
      <path class="cls-2" d="M107.25,61.65h0Z"/>
      <path class="cls-2" d="M20,33.61H20l-.07,0Z"/>
      <path class="cls-2" d="M115.29,86.43c.14-.13,0-.09-.25,0C115.21,86.54,115.32,86.56,115.29,86.43Z"/>
      <path class="cls-2" d="M113.64,89.2l.13,0C113.76,89.16,113.71,89.16,113.64,89.2Z"/>
      <path class="cls-2" d="M101.83,83.62l.29-.23A1,1,0,0,0,101.83,83.62Z"/>
      <path class="cls-2" d="M87.09,71.51c.5-.74.49-1.21-.58-1.09-1.3.14-.19.72-1.65.87A1.36,1.36,0,0,0,85,70.5c-.42,0-1,.91-1.43,1.07a1.69,1.69,0,0,1-.2-.61,1.09,1.09,0,0,1-.34.22c-.24.11-.17.37-.5.44s-.38.17-.57.22l.12-.88c-.09.16-.15.06-.2-.29-.5.35-2.28,2.4-.9,0a7.38,7.38,0,0,0-2.06.29s-.15,1.17-.37.91c-.08-.11.39-.82-.16-.7s-.3.73-1.3.94c.13-.8.69-.74,1.18-1.11-.37-.4-2.8,0-3.48,0s-2.55-.13-3.05.38c-.14-2.13,1.5-.33,2-2s-1.27-1.09-2.1-.73c-.28-.68-.74-1.12-.21-1.62s.34.31.81.27c.68-.06,1.56-.09,2.36-.16s1-.48,2.15-.25,1,.57,2.06-.18c.61,1.53.83.34,1.78.62.44.12,1.16.83,1.76,1,1.13.38,2.38.53,3.58,1,.64.23,3.86,1.93,3.59-.16-.1-.79-3.5-1.68-3.8-1.56a.35.35,0,0,1,.41-.16c-.58-.94-3.65-1.43-4.67-1,.07-.47.3-.55.69-.26,0-.34-1.7-1-2.08-1.13A10.18,10.18,0,0,0,79,64.8c-.26,0-1.09-.12-1.36-.19s-1.14-.4-1.43-.52l-.51.34a2.24,2.24,0,0,0-.94-.89,12.89,12.89,0,0,1-1.34.39l-.29-.37-1,.68c-.65-1,.31-.46.53-1.06a1.18,1.18,0,0,0,.57-1,3.37,3.37,0,0,0-.25-.93c.32-.49,1.76-.55,2.26-.87a6.27,6.27,0,0,0,1.88-2,7.24,7.24,0,0,0,.43-5.4c-1-2.28-1.13-.22-2.16.41-.13-.6-1.14-.66-1.6-.44.7.31-.2.37-.18.81a1.59,1.59,0,0,1,1-.1c0,.61-1,0-.77.9,1.12-.26,2,.38,1.3,1.56-.87,1.51-4.71,2.14-5.67.36h0c-.2-.52-.73-.08-.84.22-.22.6.47,1.1.94,1.67a2.62,2.62,0,0,1-.79,0c.4.94-.36.56-.84.74-.8.31-.78-.87-1.15.27a3.2,3.2,0,0,0,1.56,3c-1.13.38-1.33.87-2.21.61-.67-.19-.38-1.15-1.49-.86s-.55,1-.93,1.74S62.46,65,62.31,66c.85-.1,2.12-.64,2.94-.21s.48.68.57,1.44.23,2.49-.65,2.81-1.46-1.68-1.75-2.38l-.12.06h0v0a0,0,0,0,1,0,0h0a2.34,2.34,0,0,1-.24-.31c-.4.15.05.32.21.35-.58.78-1.13,1-.89,2a2.63,2.63,0,0,0,2.44,2.13c1.08-.1,2.34-1.61,2.64-2.62.41-1.39-.66-1.92-.94-2.83,1.35-.15,2.36,2,2.48,3.09a5,5,0,0,1-2.25,4.67c-1.69,1.15-3.49.67-4.85-.83a4.78,4.78,0,0,1-1.17-2.71c-.08-.72.21-1.75-.33-1.79a1.07,1.07,0,0,0,.33-1,7,7,0,0,0-2.16,1.76c-1.8-2.18-3.73,2-.32.7a1.54,1.54,0,0,0,.21.94,11.13,11.13,0,0,1-3.53,1.19c-.4,0-1.27-.41-1.78-.34s-1.14.18-1.57.2c-.73,0-1.16-.33-1.83-.45-.29,0-.61.37-.87.34s-.22-.5-.55-.52c-1.32-.11-2.44.55-3.22-.58a6.42,6.42,0,0,0,2-.91c-.5,1,.45.24.86.11s.68-.48,1.11-.64c.23-.08,2.32-.55,2-.8-1.1.74,0-.84.09-1-.18.84.1,1.21.83,1.1,0-.18.1-1.52.74-1.25.33.57-.75.18.08.61a.83.83,0,0,0-.67.75c.53-.2.62-.48,1.05-.59s.77,0,1.29-.28c-.33,0-.76.21-1.06,0,.18-.25.13-.72.5-.69.6,0,.2.43.52.51s1.7.92,1.45-.28c.33-.24.29.35.68.07l-.05-.63.93-.16c.5-.16,1.43.56,2.09,0s.26-.87.47-1.54.73-1.4-.12-1.26a1.7,1.7,0,0,1,1-.74c-1-.2,0-.47.12-.78,0,0,.79-1.67,0-.75-.36-.72.58-2.24-1-1.48l.09-.23c-.91-.17.5-.74-.48-1.08a1.06,1.06,0,0,0,.6-1.17c-.16-.53-.62,0-.86-.05-.8-.24-1.1.26-1.57-1.26.69-.33.8.62,1.3.41s-.32-1.1-.1-1.38A1.06,1.06,0,0,1,60,56c.45-.15.52-.49.22-1,.45-.7.79-.35.55-1.53,1,.44.83-.93,1.57-1,.16.18.56,1.19.63,1.28.17-.24.18-.78.49-.9-.1.61-.76,2.78-.31,3,.18-.56.71-4.48,1-4.48a22,22,0,0,0,.79,3.3c.83-.92-1.76-3.75-.24-4.37a5.55,5.55,0,0,0,2.38,2.88c.39.27.92.08,1.3.45s-.05,1.15.57,1.61c2.09-2,.89.56,1.93,1.62,1.1-.69-.32-1.56.2-2,.56.81,1.09-.31,1.54.29S72.37,56.37,73,57c.26-.1.7-2.36.19-2.32a2,2,0,0,0-.49-1.83c-.43-.31-1.85-.07-1.34.4-.86-.1-.92-.83-1.58-1.28-.24-.16-.79.23-1.06.09-.09,0-.43-.79-.59-.93s-.65-.16-.94-.41c-.48-.4-1.48-1.13-.5-1.13a12.43,12.43,0,0,1-1.36-1.06.68.68,0,0,0,0-.95c-.23.2-.41.17-.55-.11,1.89-.38,0-3.26-.71-2.37a.35.35,0,0,0-.35-.08c-.16,2-.45,1.5-2.08,1.2a12.08,12.08,0,0,0,1.79,1.39,19.12,19.12,0,0,0-2.63,3.21,13.2,13.2,0,0,0-.53,2c-1.05-.66-.4.15-1.16.53-.38.18-.64,0-1,.28s-2.26,1.49-2.24,1.83c-.53-.49-1.84-.14-2.43.32-.78.61-.85,1.3-.67,2.43.57,3.45,2.34,3.34,5.19,3.34a1.3,1.3,0,0,0,1.41,1.83,7.74,7.74,0,0,1-2.36,2.34c-1.07.57-1.75.29-2.86.51a20.31,20.31,0,0,0-6.71,2.56c-.48.27-1,.49-1.55.77a5.27,5.27,0,0,0-.77.16,2.53,2.53,0,0,0-.77,1.17c-.71.42-3.26.22-1.58,2,.44.48,2,.3,2.65.49,1.28.36,2.9.32,3.84,1.15-.9,1,0,1,.78,1.52a8.88,8.88,0,0,1-1.56,1c-.52-1.5-1.83-.6-2.33.43a3.45,3.45,0,0,0,1.11,4.13c.37.28,2.19.59,2.37.81s-.12,1.25.06,1.59c.54,1,2.06,1.1,3,1.1-.34,1.08,1,3,1.8,1.79a.65.65,0,0,0,.77.24c-.41,3,2.8,1.52,3.74,0,.31-.5,1.63-4.8,2.15-4.59-.14,0,.69,2.75.69,3a3.32,3.32,0,0,1-1,2.3c-.9.59-1.26-.45-2.27.35s-.56,1.84.56,2c1.57.14,3.21-4.5,3.29-2.33,0,1.43-1,1-1.72,2s-.35,2,1,1.52c.06,1.34.46,1.56,1.8,1.22-.1,1.13.52,1.32,1.37,1.66-.7-.27,1.49-.12.87-.11.07,0,.51.56.74.63.35-1.27-.69-1.92-.51-2.92,2-.59.83,1.21,2,1.59,1,.29.18-.49.67-.71a.91.91,0,0,1,.32-.83l.59.44c.85-.06,1,.5,1.6-.33s-.41-1.12.77-1.47c.1,0,.54.62.84.52.75-.24.32-.66.81-1.07,1.27-1,1,.24,2.17,0a1.54,1.54,0,0,0,.83-2.16c-.57-1-1.73-.29-2.72-.45q.45.72-.57.84c1.09.07,1.53.66.34.9.2,0-.93-.68-1-.68-.6-.08-.63.27-1.06.48-.19-.47-.35-.54-.7-.32a.67.67,0,0,0-.58-.31c.12,1.47,1.08.41,1.44,1.12a.65.65,0,0,0-.29,1c-1.2-.54-1.36-.24-2.14.07-.41.17-1.44,1.16-2.06.86s-.37-3.47,1-2.53c-.1-1,0-1-.62-1.75.77-.25.81-1.63.94-1.63s.44,1.15.45,1.31c.25-.21,0-1.15,0-1.4a7.31,7.31,0,0,1,.12-1.73,15.83,15.83,0,0,1,.41-2.7c.1-.3.66-.29.65-.68s-.3-.86-.28-1a4.13,4.13,0,0,0,.11-2.18c-.27.6-1.56-.09-2-.19a10.39,10.39,0,0,0,3-3.12c.8.71,1.44.66,2.39,1.56.41.39,1.57,2.07,2.38,1.76-.82-.5-.77-.77.15-.79l0,.46c.3.21.52.58.8.8.77.58,1.28.3,2,1.09.81-1.78,1.51.38.78.82.31.14.47.73.63.91.38.44.55.06.77.66,0,.16.1.16.27.26a14,14,0,0,0-2.57,2c.64.47.23.66.67,1.28-.9-.1-2.09.77-3,.93.54.17.08.41-.18.9a2.66,2.66,0,0,0,1,0c-.26.48.44.55-.32,1.13.66,0,1,.51,1.55.36,1.47-.39,1.24-1.72,1.24-3a2.07,2.07,0,0,0,1.93.17c1.74-.87.06-2.28.78-3.32s1.74.11,2.41-1.3a3.52,3.52,0,0,0-.39-3c-1-1.67-1.79-1-2.94-.92-1,.06-2.14-.64-3-.73-.59-.07-1.34.64-2.06.37-.08,0-1.06-1-1.12-1-.54-.42-1.31-.21-1.58-1,1.09.09,2.4-.54,3.64-.57.32,0,.77-.15,1-.18s.54.32.73.32c.89,0,.8-.39,1.78-.16-.34.44-1.68.53-1.09,1.56a3.42,3.42,0,0,0,.26-.57c.33.69.74.31,1.26.24-.2.69.69.38.71-.13,0-.68-1.45-.58-.89-1.26.26-.33.76.52,1,.42s.46-.15.4-.44c.28-.93.69-1.11,1.22-.55C84.5,72.38,86.66,72.16,87.09,71.51Zm-2.58-4.59c0,.13.17.47-.1.42ZM76.94,54.07c.12.26.29.51.14.83C76.9,54.78,76.86,54.53,76.94,54.07ZM68.57,57l.42-.23C68.91,57,68.83,57.12,68.57,57Zm.48.38c-.12-.1.12-.21,0,0Zm.32-.83c-.09.15-.13.1,0,0ZM64.45,71.24c-.21.18-.19-.16,0,0Zm.41-25.85c-.33.19-.51,0-.7-.2C64.38,45.18,64.59,45.35,64.86,45.39Zm-2.2,3.86c.13.27.33.46.12.77A.69.69,0,0,1,62.66,49.25ZM56,55.64c-.24.24-.24.24-.38,0Zm-1.1,1.07q.6.2,0,.48Q54.64,56.82,54.94,56.71Zm2.56,1.34c-.45,1.11-2.14.31-2.6-.34C55.29,57.48,58.2,56.33,57.5,58.05ZM59,66.6c-.1.23-.19.27-.28.11C58.87,66.5,59,66.47,59,66.6Zm-2.81-.09c.32.2.14.28,0,.43Zm-.83,1.54H55C55.17,67.7,55.47,68,55.4,68.05Zm-6.81,1.58-.21.12C48.34,69.54,48.41,69.51,48.59,69.63Zm-.67.09.33.21C48.26,70.34,47.85,69.62,47.92,69.72ZM76.18,88.6l-.11.34C75.86,88.76,75.87,88.74,76.18,88.6Zm-3,1.67c-.16.23-.28.24-.36,0C72.91,90.15,73,90.14,73.18,90.27ZM71,88.55l-.2.14C70.69,88.58,70.75,88.54,71,88.55Zm-1.5,2.64c-.11.26-.29.27-.53,0C69,91.1,69.21,91.09,69.47,91.19Zm-.53,0c.18.18.16.23-.06.16A.34.34,0,0,1,68.94,91.23Zm-10-20.17-.43.24C58.49,71.07,58.63,71,58.9,71.06ZM57.26,75.3c-.23.34-1,1.29-1.51,1.31A1.7,1.7,0,0,1,57.26,75.3ZM52.2,80a.32.32,0,0,1-.46.27c.2-.32,1.29-1,1.25-1.38-.64-.21.11-.94.6-.2.48-.28,1.51-1.88,2.17-1.47a7.28,7.28,0,0,1-3.2,2.34C52.93,79.83,52.5,80.06,52.2,80Zm3-5.59c0,.17-.16.24-.37.27C55,74.49,55,74.49,55.23,74.45Zm-6.49,3.94c1,0,1.29-.11,1.62.81A1.56,1.56,0,0,1,48.74,78.39Zm1.87-2c.41-.61,3-.38,3.9-.89-.69-.39-.6.36-1.17.19l.48-.21c-1,0-1.7,0-2.62,0-.42-.52.89.17-.08-.51A5.93,5.93,0,0,1,53,74.81a6.54,6.54,0,0,1,2.64.28,11.79,11.79,0,0,1-2,1.3C52.44,76.8,51.36,77.3,50.61,76.39ZM52,79.45l-1-.17C51.28,78.28,52.11,78.46,52,79.45Zm1.34,3.88h.44C53.66,83.47,53.54,83.51,53.34,83.33Zm1.06.7c-.23.09-.13-.13,0,0Zm.93,2.28.19-.38C55.76,86.23,55.69,86.35,55.33,86.31Zm5.15-7.84a.82.82,0,0,1,.63-.24c-.23.7-.35.29-.31,1.11,0,.47-.1.89-.06,1.3.06.71.37.47.22,1.46s-2.34,5.46-3.4,5.15a5.32,5.32,0,0,1,.37-.66H56.38c.24-1,.78-.78.53-1.6,0,.13,2.23-1.4,1.37-2a24.26,24.26,0,0,1-1.37,2h0c-.8.67-1.72,0-2.45-.41.76-1,1.65-1.8,2.43-2.75-.55-.11-2.25,1.66-2.75,2,0-.18,1-.93,1-1s-1.21.24-1.25.27c.56-1-1.47-.48-2.39-.92-.06-.29,2.58-2.13,3-2.52,1.56-1.56,3.76-3.4,4.62-5.54-.47,0-.77-.54-.24-.68s.88,1.74,1.08,2a16.34,16.34,0,0,0,1.77,1C61.23,77,59.44,77,60.48,78.47ZM61.88,77a.87.87,0,0,1,.64.91C62.12,77.8,61.45,77.51,61.88,77Zm-.3,13.16c-.17-.62.63.1,0,0Zm.51.71a3.38,3.38,0,0,1,.83-1C63.71,90.33,62.57,90.86,62.09,90.82Zm.74-7.54c-.64.18,0-.16,0,0Zm-.12-.94c-.22-.57.18-.07,0,0ZM66,88.11c-.61.28-.78,1.66-.86,1.69-1.2.34-.45-1.45-1.1-2.21.31-.68-.49-1.71.07-2,.55.66,1.29,1.38,1.91.34C66.53,86.53,65.28,87,66,88.11ZM67.11,80c0,.45-.34.9-.39,1.41-.1.93.12,3.44-.76,3.67-1.09-1.87-1.07-.77-2,.1-.91-.78-.3-2.71-1.18-3.61.55-.39.62-2.71.06-3.19-.63.47.27,1.45-.94.18,2.09-.76-.87-2.12,2.5-1.35-.13.37-.68,2.86.75,2.5.52-.13.38-.59.62-.91.72-1-.5-.75.87-1.56C66.6,78.11,67.23,79,67.11,80ZM69.81,65a35.62,35.62,0,0,1-3.64-1.11c1-.49,1.82-1.21,2.69-.9C69.35,63.19,70.46,64.55,69.81,65Zm.64-3.36c0,.34.66.67,0,1-.21.1-1.61,0-1.77-.26,1-.8,1-3.16,2.67-1.25C71.14,61.39,70.93,61.85,70.45,61.66ZM71.27,73l.36-.93C71.77,72.85,71.74,72.92,71.27,73ZM79,86.08l0,.36C78.77,86.24,78.76,86.12,79,86.08Zm2.62-8.34c-1.06-1.24.65.08.86.22a5.7,5.7,0,0,1-1.74,1.2C80.9,78.16,80,77.9,81.62,77.74Zm-1.38,1.67c.51-.14.07.16,0,0Zm-8.16-7.16c-.19-.63.61-1.27,1.15-.78C73.23,71.9,72.31,73,72.08,72.25Zm2.78,3.64c.12-.63-.57-.69-1-.79l-.12-.39C74.32,74.76,75.92,75.39,74.86,75.89Zm-.92-3.57c-.09-.8-.12.21-.49.32.32-1.2.31-.78,1.21-1.53C75,71.54,74.76,72.52,73.94,72.32Zm1.85-.83.26-.27C76,71.34,76,71.67,75.79,71.49Zm3.4.25c-.1-.44.06-.54.48-.31Z"/>
      <path class="cls-2" d="M83.37,71c.16-.17,0-.23,0,0Z"/>
      <path class="cls-2" d="M74.71,63.53h0Z"/>
      <path class="cls-2" d="M69.08,86.68Z"/>
      <path class="cls-2" d="M40.24,45.5a36.47,36.47,0,0,0-4.09,5.69A31.15,31.15,0,0,0,32,65.28,31.82,31.82,0,0,0,43.5,91.35a33.57,33.57,0,0,0,28.19,6.78,34.58,34.58,0,0,0,11.7-5.19c1-.66,4-2.08,2.58-3.38-1.26-1.14-2.61,1-.87,1.77a3.89,3.89,0,0,1-1,.64c-.94-1.75-2.92-.61-1.39.82-1.72,1.1-1.37-.92-3-.37.53-.88-.6-.22-.76.13h.57a1.24,1.24,0,0,0,.36,1.69c-2.15,1-.82-1.06-2.72-1-1.31,0-.85,1.38-.19,2.09a3,3,0,0,1-1.52.52c0-2.71-3.53-1.17-1.48.53a2.3,2.3,0,0,1-1.68.4c.42-2.26-3.18-1.8-1.66.39a1,1,0,0,1-1,.2c.26-1.23-1-2.29-2-1.26-.75.75.56,2.27-1.52,1.65,1.27-2-2.73-2.82-2,0a2.23,2.23,0,0,1-1.42-.07c1.8-1.46-2.19-3.37-1.46-.15a2.76,2.76,0,0,1-1.68-.17c1.82-1.45-2.27-3.09-1.32-.32a1.05,1.05,0,0,1-1-.14c.45-.8,0-2.45-1.16-2-.88.37-.25,2.21-1.66,1.19.75-.55.52-2.13-.57-2-1.51.11-.26,1.92-2.17,1,1-.45,1.06-2.3-.31-2.11s-.14,2.12-1.62,1.18c-1.19-.75,1.09-1.61-.63-2.33s-.52,1.75-2.79.27c1.66-.82,1-2.46-.2-2-.8.26-1,2-1.93.28,1-.37.7-1.32-.18-1.71-1.15-.51-1.07.78-2.08-.26.7-.49.81-.9.11-1.47-1-.84-1.15.51-2-.67,1.34-.1.58-1.48-.26-1.84s-.4,1.31-1.19-.06c1-.31.85-.85.24-1.58-1.21-1.43-.47.19-1.41-.25,0,0,1.12-3.47-1.2-2.17a1.87,1.87,0,0,1-.27-.71c1-.15,1.09-1.33.36-2-.46-.46-1.4,0-1.46-.66A1,1,0,0,0,35.32,75c-.7-.56-1.27.59-1.38-.52,1.76.14,1.36-2.51-.39-1.88a1.58,1.58,0,0,1-.12-1.13A1.12,1.12,0,0,0,34.7,70c-.14-.27-2.83-.79-1.51-1.72,1.11,2,3.56-3.31-.14-1.7a1.08,1.08,0,0,1,.09-1c1.48,1.11,2.54-2.72,0-1.43a10.49,10.49,0,0,1,.26-1.68c1.38,2.46,2.84-2.77.16-.76a2.83,2.83,0,0,1,.39-1.8c1.17,1.92,3.65-2,.29-1.42,0-.38.19-1.31.57-1.56.54,2.45,3.45-2.24.18-.78,0-.51.32-1.61.83-1.87.51,2.6,3.51-1.5.16-.69a6.6,6.6,0,0,1,.91-1.72c1,2.81,3.59-1.37.35-.71a9.28,9.28,0,0,1,.9-1.4c1,2.34,3.37-1.12.64-1a4,4,0,0,1,.88-1.12c.81,2.46,3.42-.87.74-1a2.82,2.82,0,0,1,.83-.92c1.1,1.63,3-.26,1.2-1.31C43.26,43,40.52,45.19,40.24,45.5Z"/>
      <path class="cls-2" d="M94.91,82.27a33.22,33.22,0,0,0,4.45-11.39A32.42,32.42,0,0,0,62.9,33.47,33.13,33.13,0,0,0,56.67,35c-1.39.47-4.43,1.18-5.17,2.57a3.39,3.39,0,0,0,2.22-.36,1.17,1.17,0,0,0,1.59,1.53c1.32-.7-.27-1.48-.24-2.08,2.35-1.24.62.75,2.33,1.09,2.13.43.5-1.74.63-2.16a2.33,2.33,0,0,1,1.59-.28c-.12,1,.86,2.25,1.81,1.25.67-.68-.33-1.3,0-1.81.59-1,1.2,1.38,1.51,1.52,1.43.65,1.68-.91,1.39-1.82a2.17,2.17,0,0,1,1.54-.15c-1.24,1.89,2.74,3.1,2-.09a3,3,0,0,1,1.42.17c-1.91,1.46,2.39,3.38,1.47.14a2.85,2.85,0,0,1,1.68.14c-1.61,1.5,2,3.05,1.32.31a1.59,1.59,0,0,1,1.07.13c-.4.78-.27,2.33,1,1.95,1.49-.43-.14-1.79,1.87-1.2-.8.55-.69,2.24.52,2.1s.62-2.23,2-1c-.36.61-1.11.66-.5,1.58.86,1.31,1.66,0,1.78-.93a2.8,2.8,0,0,1,1.39.63c-.66.63-1,2.47.57,2.14.81-.17,1.09-2.34,2.13-.36-1.18.45-1.57,2.27.13,2.23,1,0,1-2.6,2.08-.53a1.13,1.13,0,0,0-.08,2.12c.66.31,2.2-1.39,2.28-.13,0,.48-1.63,1.45-.23,2.09s1-1.56,2.21.06c-1.73-.16-.82,3.38,1,1.23.93.7-1.3,1.33-.2,2.55.71.79,1.83-.37,2,.33a1.13,1.13,0,0,0-.6,1.92c1,.87,1.34-.8,1.94.59a1.14,1.14,0,0,0-1,1.73c.67,1.33,1.82-.08,2.13.93-2,0-1.57,2.84.65,1.84.12.81-2.19.88-1.24,2.25.63.94,2.45-.47,1.84,1.36-2-.45-1.94,2.78.29,2a3.15,3.15,0,0,1,.05,1.26c-2.38-1.76-2.71,3.14,0,1.71a2,2,0,0,1,0,1.06c-.94-1-3,2,0,1.44a7.17,7.17,0,0,1-.22,1.6c-1.46-2.52-2.74,2.87-.12.73A3.15,3.15,0,0,1,98,72.22c-1.29-2.18-3.56,2.33-.25,1.37a5.68,5.68,0,0,1-.55,1.69c-.92-2.67-3.15,2.2-.27.69.27.25-.68,1.79-.75,1.88-1.42-2.59-2.84,1.67-.25.66A3.25,3.25,0,0,1,95,80.17c-.5-2.84-3.92,1.52-.33.81a8.33,8.33,0,0,1-.89,1.38c-.81-2.21-3.33.79-.72,1a1.86,1.86,0,0,1-.82,1c-.54-2-3.5.52-.75,1.16a3.08,3.08,0,0,1-.8.85c-.49-.69-1.7-1.07-2,.07s1,.87.46,1.68C91.18,88.44,94,83.71,94.91,82.27Z"/>
      <path class="cls-2" d="M116.13,98.26a62.44,62.44,0,0,1-7,8.89,53.66,53.66,0,0,1-6.61,6.08c-2.52,1.89-5.57,3.18-8,5.21.35-.28.55-.25.59.1,0,0-.77.26-.58-.14a7.59,7.59,0,0,1-2.9,1.4c-1.24.35-2.32,1.28-3.5,1.76a14.43,14.43,0,0,0-2.38.71c-.94.6.45.55-.79.91,0-1-1.9.14-2.52.3s-1.56.3-2.32.49a29.25,29.25,0,0,1-5.37,1.09,87,87,0,0,1-13.42.45A60.1,60.1,0,0,1,14.4,96.87,57.17,57.17,0,0,1,6,70.35a77.74,77.74,0,0,1,.7-14.06C6.92,55,9.48,46.08,9.18,46a17.21,17.21,0,0,0-1.94,5c-.35,1.5-.92,3-1.13,4.51-.17,1.27-.27,2.52-.46,3.78q-.17,1.14-.3,2.28c0,.39.35.81.29,1-1.12.13,0,.87-.11,1.16-.53-.09-.2,7.07-.12,8a68.23,68.23,0,0,0,2.11,11,56,56,0,0,0,9.81,19.73c4,5.22,9.1,10.4,14.76,13.82,2.21,1.33,4.49,2.66,6.74,3.94.82.46,1.55.57,2.33,1a7.73,7.73,0,0,1,1.53,1c.52.39,3.61,1.2,3.43,1.31a12.34,12.34,0,0,0,4.16,1.07c-.81.5,1.34.22,1.39.24.11.18,0,.26-.3.23a5.18,5.18,0,0,0,.94.31c.8-.84,1.26.25,1.28.25.79.09.93-.5,1.67.12-.22,0-.31,0-.26.17.37,0,.63-.31.91-.07-1.25.14.23.2.55.27a21.08,21.08,0,0,0,2.62.33c1.33.14,2.66.25,4,.31a61.4,61.4,0,0,0,10.84-.53,62.24,62.24,0,0,0,20.74-6.84,59.48,59.48,0,0,0,17.07-13.59,61,61,0,0,0,6-8.26c1.61-2.64,4-6,4.31-9.18C119.26,90.6,118.09,95.24,116.13,98.26ZM56.18,125.82l.51-.08C56.58,125.9,56.25,126.05,56.18,125.82Zm1.25.1-.53,0C57,125.75,57.48,125.6,57.43,125.92Zm2.57-.07c.38-.14,0,.19,0,0Zm1.74.41c.28-.3.43-.32.43-.06Zm.93-.06c.48.08,0,.2,0,0Zm.73.09c.19-.2.36-.23.5-.06S63.47,126.54,63.4,126.29Zm2.81.36c-.15-.48.78-.66.76-.26A.59.59,0,0,1,66.21,126.65Zm1.16-.17c.12-.31.16-.32.48-.08Zm1.71-.1a.44.44,0,0,1-.52,0C68.4,126.23,69.21,125.77,69.08,126.38Zm.53-.2q.58-.5,1,0C70.55,126.18,69.74,126.35,69.61,126.18Zm1.61-.06c.11-.05.21-.2.4,0ZM83,123.67c0-.24.2-.28.42-.29C83.44,123.74,83.21,123.63,83,123.67Zm.67-.07c.17-.17.27-.19.3,0C83.83,123.73,83.73,123.75,83.7,123.6Zm2.15-1.07c.14-.18.21-.11.33.06Zm10.54-4.75L96,118C95.86,117.61,96.43,117.5,96.39,117.78Zm11.78-8.67c.13-.2.13-.2.33-.18Zm9.36-12.49c-.41.46-.14-.1,0,0Z"/>
      <path class="cls-2" d="M46,9.56l-.06,0C46,9.61,46.09,9.59,46,9.56Z"/>
      <path class="cls-2" d="M126.34,63.81c1.53-1.17-.73-8-1-9.81a51.23,51.23,0,0,0-2.71-10,57.76,57.76,0,0,0-8.9-15.49A63.7,63.7,0,0,0,98.93,15.24c-1.78-1.16-3.76-2.18-5.64-3.21-.93-.5-2-1.15-2.93-1.52-.5-.21-1.49-.43-1.15-.6a6.75,6.75,0,0,0-1.33-.51C87,9,86.59,8.73,85.68,9c-.16-.91-3.79-1.5-4.13-1.53.69-.28-1.25-.55-1.33-.57S78.37,7,78.4,7c-.65-.21.59-.27-.75-.63.12.81-2.11,0-.35,0-2.14-.94-5.21-.77-7.53-1a49.66,49.66,0,0,0-10,.29A62.18,62.18,0,0,0,22.54,23.73c-4.89,5-10,11.51-11.95,18.34,1.57-1.22,2.25-3.4,3.27-5.1S16,33.5,17.1,31.81a58.81,58.81,0,0,1,6.55-7.87,52,52,0,0,1,6.19-5.31c2.38-1.82,5.19-3.14,7.49-5-.23.17-.4.13-.5-.12.72-.17,7.37-2.6,9.14-3.91-.09,0-.2,0-.18-.11a.77.77,0,0,1,.24.06c.26-.21.4-.38.36-.51.42-.12.61-.3.53.27.92.21,2.53-.66,3.41-.91,1.62-.45,3.32-.88,5-1.18A66.17,66.17,0,0,1,68.6,6.4a60.26,60.26,0,0,1,49.47,29.77,57,57,0,0,1,7.83,27.17A70.3,70.3,0,0,1,125,76.55a46.48,46.48,0,0,1-1.41,6.13c-.19.6-1.58,3-.84,3.56a60.07,60.07,0,0,0,2.88-9.08c.23-1.15.29-2.28.48-3.4.12-.72.18-1.49.26-2.22s-.26-1.67-.19-2C127,69.39,126.9,63.88,126.34,63.81Zm.27,4.7c-.21.09-.21.09-.31-.15C126.45,68.33,126.56,68.35,126.61,68.51ZM23.46,23.23c0-.19.11-.21.26-.19ZM35.4,14.29a.74.74,0,0,1,.61-.12C35.78,14.64,35.58,14.68,35.4,14.29ZM47.86,8.48l.35-.11C48.09,8.53,48,8.6,47.86,8.48Zm.59.13c.08-.21.23-.26.46-.15C48.7,8.76,48.55,8.81,48.45,8.61Zm8.1-2.25h.28C56.71,6.44,56.63,6.51,56.55,6.36Zm4.75-.52h1C62.66,5.85,60.91,6.39,61.3,5.84Zm1.51-.14c.15-.06.43-.22.53,0S62.69,6.25,62.81,5.7Zm1.27,0,.5-.08C64.33,5.9,64.33,5.9,64.08,5.66Zm.84,0a.59.59,0,0,1,.78-.26C65.66,5.57,65,6.28,64.92,5.67ZM68,5.9c.06-.28.13-.31.52-.21A.45.45,0,0,1,68,5.9Zm.94-.17a.36.36,0,0,1,.36.12A.24.24,0,0,1,68.92,5.73Zm.78.21c.11-.18.25-.09.37-.09A.24.24,0,0,1,69.7,5.94Zm4.72.28a.37.37,0,0,1,.53.06C74.74,6.38,74.57,6.46,74.42,6.22Zm.81,0a.47.47,0,0,1,.47,0A.33.33,0,0,1,75.23,6.24Zm.76,0h.45C76.18,6.46,76.18,6.46,76,6.26Z"/>
      <path class="cls-2" d="M80.22,6.94h0Z"/>
      <path class="cls-2" d="M91.76,93.62a.91.91,0,0,0,0-.28A.51.51,0,0,0,91.76,93.62Z"/>
      <path class="cls-2" d="M92.11,88.92a1,1,0,0,1-.06-.34,4.63,4.63,0,0,0-2.23,3.68c.08,1.45.78,1.07,1.4,1.92,0-.08,0-1,.18-1.06s.35,0,.37.22c.13-.31.7-.18.75-.46.1-.49-.73-1.13-.43-1.67.41-.72.71-.4,1.27-.08.73.42.5,2.08.81,2.18.88.27.74-1.44,1.49-1.45.28,1,.35.47,1.06.6-.42-.07,1.37-.39,1.06-.27.71-.27,2-.12,1.62-1.46-.44.48-.75.19-.39-.35-.41-.29-.84.37-1,.28a4.8,4.8,0,0,0-1-.44c.13-.6,0-.58-.5-.53a9.76,9.76,0,0,0-1.26.93l-.38-.29c-.54,0-1.27.52-1.21-.47,0-.08,1-.17,1.12-.25-.09-.3-1.15-.46-1.43-.56s-.31-.68-.71-.82C92.56,88.19,92.4,89,92.11,88.92Zm-.75,1.16a.72.72,0,0,1,.38-.72C91.8,89.72,91.59,89.85,91.36,90.08ZM91.81,93c.23-.28.25.17,0,0Zm3-2.06c.24.07.48.41.12.48Q94.62,91.12,94.83,90.91Z"/>
      <path class="cls-2" d="M37.45,33.08c-1.19-1.36-4.25,1.09-3.76,2.76.24-.32,1.92-1.53,2.45-1.29-1.41,1,.39.45,1,1.16-.18.23-.35.46-.51.7h0c-.21-.15-.26,0-.34.17-.18,0-.29,0-.34.25-.5-.06-.92.48-1.11.76.38.34,1-.2,1.21-.46-.45.26-.32.07-.08-.3h0l.33-.25.33-.16c-.2.66,1.26-.24,1.53-.45.81-.65.82-2,1.75-2.25-.17.31-.63.87.1.65a1,1,0,0,1-.39.93A1.79,1.79,0,0,0,40.94,35c-1-.37.3-.47.64-.49a1.38,1.38,0,0,0,0,.94c.53,1.52,3-.13,2.65-1.78a1.65,1.65,0,0,0-1.66-1.44c-1.09-.11-1.37.88-2.1,1.13s-4-.37-4-.16C36.63,32.86,37,32.82,37.45,33.08Zm4.91,2.34.15.25C42.31,35.64,42.31,35.64,42.36,35.42ZM41.58,33c.73-.57,1.07-.47,1.78,0a2.56,2.56,0,0,0-1.77,1.48C41.08,33.44,40.62,33.76,41.58,33ZM35.36,34.3c-.31.2-.15,0,0,0Zm.33-.67c.17-.29.33-.29.49,0A.3.3,0,0,1,35.69,33.63Z"/>
      <path class="cls-2" d="M98.19,96.3c-.47.17-1.94,1.48-2.48,1.18.21-.25.69-.15.57-.63-1.45-.18-1.92-.83-.46-1.53a.48.48,0,0,1-.41-.3c-.57.83-1.61,1-2.25,1.87-.5.69-.39,1.42-1.25,1.42.45-.12.59-.37.4-.75a.94.94,0,0,1-.41,0c-.22-.25.34-.75.45-.87a2,2,0,0,0-1.39.33l.4.14c-.36.53-.63.29-1.13.37a1.78,1.78,0,0,0,.82.87c-.39.42-2.18,1.78-2.47.58a3,3,0,0,1,.67-.31c.31-.53,1.59-1.3,1-2.3s-2.55.24-2.66,1.31c-.22,2.08,1.58,2.33,3.16,1.7.43-.17.45-.66.91-.77,1-.27,1.85.28,2.81.42.83,1,4-1.12,3.35-1.6A.74.74,0,0,0,98.19,96.3Zm-8.71,0c.18.22-.16.22,0,0Zm5,2.71c0-.68,1.07-.35,1.27-.24C95.65,99.17,94.82,98.82,94.52,99.06Zm1.14-.72.52,0C96,98.74,95.81,98.73,95.66,98.34Zm.33-.22.54-.39C96.29,98.06,96.29,98.06,96,98.12Z"/>
      <path class="cls-2" d="M89.25,98.71a.36.36,0,0,0,0,.09C89.27,98.74,89.28,98.71,89.25,98.71Z"/>
      <path class="cls-2" d="M45.58,41.88c.25.91,1.57,1.49,2.06.29.13-.31-.56-1.18-.8-1.48a2.9,2.9,0,0,1,1-.56c.49,1.69,3.34.79,1.47-.87,1.79-1.07,1.4,1.07,3,.56a.92.92,0,0,0,.45-1.61c-.54-.52-1.14-.15-1.76,0l.17-.4C49.69,38.42,45.2,40.56,45.58,41.88Zm4.86-3.36c-.16.15-.13-.07,0,0Z"/>
      <path class="cls-2" d="M24.26,76.4c.81-.29.53-1.53,1.81-1.28.5.09.73,1,1.15,1,1,0,.92-1.69.61-2.37C26,69.91,22.59,75.49,24.26,76.4Z"/>
      <path class="cls-2" d="M107.67,55.66c-.56.16-.44,1-1,1.16-.89.29-.85-.31-1.49-.44-.92-.19-1.64-.54-1.22,1.39C104.72,61.47,109.38,58.29,107.67,55.66Z"/>
      <path class="cls-2" d="M37.64,40.08c1.46-2.85-1.43.11-1.47.2-.17-.93-.13-.65-.85-.78.4.07-1.6.53-1.18.41-.63.18-2.13-.13-1.48,1.25a1.39,1.39,0,0,1,.56.11c-.24.14-.27.31-.07.52,1.07-.1.52-.3,1.24-.08.3.09.47.58.3.55.67.12.41.14,1-.2s-.33-.63-.16-.86C35.91,40.7,37.31,40.73,37.64,40.08ZM35,41.71c-.12-.29,0-.37.35-.22Z"/>
      <path class="cls-2" d="M86.13,96a.6.6,0,0,1,.47-.55c-.19-.75-2.08,1.21-2.23,1.68s.42,3.26.91,2.44a.33.33,0,0,1-.36-.15c.48-.25.67-.16,1-.67.51-.71.37-1,.79-1.77C88.78,93.46,86.56,97,86.13,96Zm-1.59,2.7c0-.16.09-.17.32,0C85.08,99,84.85,98.69,84.54,98.72Z"/>
      <path class="cls-2" d="M32.22,53.17c0-.14.89-1,1-1.35a2.61,2.61,0,0,0,.07-1.74c-.17-.7-.37-1.24-1.1-1.37s-.94.15-1.25.69c-.11.19-.2.2-.24.18a3.27,3.27,0,0,1,.29.67c.24.65.53,1.44.76,2.09C31.91,52.7,31.48,53.17,32.22,53.17Z"/>
      <path class="cls-2" d="M30.72,49.58c0-.07,0,0,0,0Z"/>
      <path class="cls-2" d="M44.41,36.77c-.46-.11,2.51-.88,2.6-1,.59-.5,1.08-2.39.25-2.94s-1.31.81-2,1.06C46,35,43.21,36.48,44.41,36.77Z"/>
      <path class="cls-2" d="M32.35,28.6c-2.89.32.22,2.59-.06,3.57l.17.43C33.22,32.89,35.06,28.3,32.35,28.6Zm.37,3.23c-.32.5-.13-.12,0,0Zm.12-2.58c-.24-.05-.22-.17,0-.37A.22.22,0,0,1,32.84,29.25Z"/>
      <path class="cls-2" d="M99.2,103.49c2.7.25.77-3,.26-4C98.76,99.2,97,103.29,99.2,103.49Zm-.14-.74c.39.37-.14.41-.35.41Z"/>
      <path class="cls-2" d="M71.75,50.22a2.34,2.34,0,0,0-1-4.13c-1.49-.31-.71.41-.57,1.07s.77,1.31.44,2.35A.77.77,0,0,1,71.75,50.22Zm-1.56-4a1.68,1.68,0,0,1,1.59,1.26C71.15,47.5,70.6,46.66,70.19,46.24Z"/>
      <path class="cls-2" d="M111.43,97.23c1.4.67.93-1.52,1.7-2.13-2.09.06-2.22.52-3.14-1.28.05,0-1.13,1.84,0,1.51,0,0-.49.62-.19,1a4.7,4.7,0,0,0,1.09.7c-.13,0-.24.33.13.12v0h0c.13.34.32,0,.45,0C111.76,97.17,111.74,97.23,111.43,97.23Z"/>
      <path class="cls-2" d="M30.43,23.16c-1.11.35-1.86,2-.13,2.38S32.11,23.58,30.43,23.16Z"/>
      <path class="cls-2" d="M101,108.8c1.93.61,2-2.32.21-2.36C99.89,106.45,99.9,108.44,101,108.8Z"/>
      <path class="cls-2" d="M18.67,36.91c.3.22,2.2-.21,2.86.11,0,0,0,0,0,0l.38,1.16c.21-.12.19-1.12.15-1.35l-.51.18c.12-.12.56-.57.57-.41.7-.77-1.28-1.52-1.35-1.69s-.29.42-.58,0c.36-.1.28-.19-.23-.28-.74.26-1,.6-.71,1C19.05,35.89,19.39,36.65,18.67,36.91Z"/>
      <path class="cls-2" d="M9.25,60.19c.31,1.54,2.43.92,2.54-.42C12,58.19,8.93,58.58,9.25,60.19Z"/>
      <path class="cls-2" d="M121.36,71a1.22,1.22,0,0,0-.15,2.43C122.85,73.51,123.13,71,121.36,71Z"/>
      <path class="cls-2" d="M51.39,11.6c-1.29.27-1,2.61.39,2.61C53.31,13.72,53.11,11.23,51.39,11.6Z"/>
      <path class="cls-2" d="M81.31,119.21a1.19,1.19,0,1,0-2.38-.09C79,120.57,81.51,120.92,81.31,119.21Z"/>
      <path class="cls-2" d="M57.69,63.69a1.16,1.16,0,1,0-2.31,0A1.16,1.16,0,1,0,57.69,63.69Z"/>
      <path class="cls-2" d="M51.16,119.24a1.12,1.12,0,0,0-2.24-.18A1.14,1.14,0,1,0,51.16,119.24Z"/>
      <path class="cls-2" d="M80.7,12.94c0,1.59,2.17,1.21,2.26-.11C83.08,11.09,80.64,11.2,80.7,12.94Z"/>
      <path class="cls-2" d="M13.37,82.28a1.12,1.12,0,1,0,0,2.24A1.12,1.12,0,1,0,13.37,82.28Z"/>
      <path class="cls-2" d="M118.57,49.78a1.11,1.11,0,1,0,0-2.21A1.11,1.11,0,1,0,118.57,49.78Z"/>
      <path class="cls-2" d="M66.5,48.37a.48.48,0,0,1,.6.16c.85-.6,1.6.28,1.81-1.12a1.66,1.66,0,0,0-1-1.62c-1.07-.28-1,.81-1,1.72C66.83,47.76,66.42,48.21,66.5,48.37Zm1.73-2.24c.58,1.69-.44.8-.78,0Z"/>
      <path class="cls-2" d="M27.85,60.92c.3,1.09,2,2,2.29.27C30.5,59.22,28.46,60.31,27.85,60.92Z"/>
      <path class="cls-2" d="M100.8,23.94c.08,1.51,2,1.22,2-.14C102.8,22.12,100.74,22.59,100.8,23.94Z"/>
      <path class="cls-2" d="M31.13,108.13c0-1.57-2.19-1.16-2.07.22S31.13,109.48,31.13,108.13Z"/>
      <path class="cls-2" d="M103.05,70c-1.51-.3-1.81,2.08-.3,2.1C104,71.83,104.45,70.27,103.05,70Z"/>
      <path class="cls-2" d="M56.19,48.37c-.52-.61-1.34.73-1.41,1.23-.2,1.39.55,1.83,1.38,2.37.25-.68-1.32,0,.44-.72C54.81,50.42,56.9,49.19,56.19,48.37Zm-.49,1.25c-.36-.13-.13-.74.17-.77C55.77,49.16,55.87,49.35,55.7,49.62Z"/>
      <path class="cls-2" d="M102.38,56.3c1.37-.36.91-2-.35-2C100.39,54.31,100.94,56.67,102.38,56.3Z"/>
      <path class="cls-2" d="M29.49,75.76c-1.44.39-.84,2,.42,2C31.5,77.73,30.93,75.37,29.49,75.76Z"/>
      <path class="cls-2" d="M78.61,68.88a1.09,1.09,0,0,0,2.17.05A1.09,1.09,0,0,0,78.61,68.88Z"/>
      <path class="cls-2" d="M75.65,102.22a1.17,1.17,0,0,0-.05-2.32C74.61,100.33,74.14,102.24,75.65,102.22Z"/>
      <path class="cls-2" d="M39.25,42.28c0-1.23-1.91-1.69-2.13-.36S39.26,43.49,39.25,42.28Z"/>
      <path class="cls-2" d="M56.28,29.9c-1.29,0-1.54,2.23,0,2.25C57.25,31.75,57.75,29.85,56.28,29.9Z"/>
      <path class="cls-2" d="M51,69.92c-1,.26-1.7,2.11-.25,2.14C52,72.09,52.34,70,51,69.92Z"/>
      <path class="cls-2" d="M45.09,41.92c-.44-.6-3.61,2.37-1.19,2.41C45.81,44.37,44.2,42.6,45.09,41.92Z"/>
      <path class="cls-2" d="M88.21,94.74c1.27-.2,1.4-1.87,0-1.85C87.14,92.91,86.92,94.83,88.21,94.74Z"/>
      <path class="cls-2" d="M88.84,88.41c-.36-.51-1.06-1-1.67-.46-.84.82.55,1.35,0,1.93C87.69,89.64,89,89.15,88.84,88.41Z"/>
      <path class="cls-2" d="M43.84,37.35c-1.05.17-1.81,1.6-.38,1.77C44.43,39.23,45.07,37.27,43.84,37.35Z"/>
      <path class="cls-2" d="M112.76,92.12c-.38.12-.64.59,0,.32l-.11,1a2.54,2.54,0,0,0,2,0c-.45-.27-.36-.85.07-1.32C114.23,92.11,113.16,92,112.76,92.12Z"/>
      <path class="cls-2" d="M96.92,83.05c-1.68.33-.74,1.63-.21,2.28C97.43,85.05,98.14,82.82,96.92,83.05Z"/>
      <path class="cls-2" d="M95.76,84.52c-.41.38-2.05,4-.88,3A6,6,0,0,0,95.76,84.52Z"/>
      <path class="cls-2" d="M59.18,47.78c1-.71.39,1.16,1.66.1L60.15,47c.19-.14.57.26.72,0S59.3,46.06,59.18,47.78Z"/>
      <path class="cls-2" d="M60.74,48.9c.16.24.4.17.71-.2,0,.2-.32.52-.15.72.27-.34,1.81-3.51,0-2.18C61.89,48,61.19,48.49,60.74,48.9Z"/>
      <path class="cls-2" d="M57,48.25c.57.18.52,1.23,1,1.16.75-.11.58-1.21-.33-1.21A3,3,0,0,0,58.09,47,2,2,0,0,0,57,48.25Z"/>
      <path class="cls-2" d="M115.78,88.88c-.31-.16-1.64.34-2,.34,0,.51.22.41-.21.87C115.31,90.68,114.62,89.86,115.78,88.88Z"/>
      <path class="cls-2" d="M93.12,86.17c1,.25,1.58-.91,2-1.73C94.42,84.2,93.2,85.48,93.12,86.17Z"/>
      <path class="cls-2" d="M99,82.68a1.76,1.76,0,0,0,.56-2.18c-.17,0-.19.15-.08.3A1.08,1.08,0,0,0,99,82.68Z"/>
      <path class="cls-2" d="M41.4,39.09c.47-.7-.07-1.24-.79-.84-.24.13,0,.62-.46.84l-.32.33C40.2,39.72,41.27,39.29,41.4,39.09Z"/>
      <path class="cls-2" d="M40.14,39.1h0c-.06,0-.46-.38-.51,0,.1.25.27.24.5,0h0S40.18,39.05,40.14,39.1Z"/>
      <path class="cls-2" d="M92.27,95a.44.44,0,0,1-.42.17c.86.6,1-.4,1.15-.63-.9.12-1-.57-1.68-.35a2.08,2.08,0,0,1-.06.71A6,6,0,0,1,92.27,95Z"/>
      <path class="cls-2" d="M91.26,94.87h0Z"/>
      <path class="cls-2" d="M91.21,94.19l.11,0C91.3,94.1,91.27,94.12,91.21,94.19Z"/>
      <path class="cls-2" d="M121.48,82.65c.61-.17,1-1.92.92-2.47A2.73,2.73,0,0,0,121.48,82.65Z"/>
      <path class="cls-2" d="M10.11,49.53a.51.51,0,0,0,0-.13S10.11,49.45,10.11,49.53Z"/>
      <path class="cls-2" d="M66,104.43c-.46.51,2,1,1.81.42C67.45,104,66.55,104.77,66,104.43Z"/>
      <path class="cls-2" d="M33.18,43.79A4.46,4.46,0,0,0,32.69,45C33.07,44.86,34.51,43.56,33.18,43.79Z"/>
      <path class="cls-2" d="M72,74.53l1.84,2C74.47,76.1,72.12,74.41,72,74.53Z"/>
      <path class="cls-2" d="M110.17,83.74c0,1.64,1.94,1.08,0,0Z"/>
      <path class="cls-2" d="M10.41,49.24c.23-.45,1.15-2,.78-2.56A5.91,5.91,0,0,0,10.41,49.24Z"/>
      <path class="cls-2" d="M78.44,75.19c0-.77-.52-1-1.33-1,0,.14.06.2.28.19-.87.93.45.14.48.13C77.84,74.86,78.24,75,78.44,75.19Z"/>
      <path class="cls-2" d="M97.06,94.41c-1.28-.13-.86.46-1.24.91A1.23,1.23,0,0,0,97.06,94.41Zm-.31.36c-.23.13-.08-.21,0,0Z"/>
      <path class="cls-2" d="M74.05,76.64c.22.37,1.1,1.26,1.55,1.13C75.26,77.37,74.69,76.35,74.05,76.64Z"/>
      <path class="cls-2" d="M65.33,27.37c.21-.6-1.07-.42-1.29-.3C64.44,27.69,64.66,27.59,65.33,27.37Z"/>
      <path class="cls-2" d="M18.4,36.72c.22-.61.09-1,.36-1.61A1,1,0,0,0,18.4,36.72Z"/>
      <path class="cls-2" d="M113.19,97c.66-.57.66-.87.32-1.67A3.84,3.84,0,0,0,113.19,97Z"/>
      <path class="cls-2" d="M40.77,37.92a1.74,1.74,0,0,1-.21-.77c-.37.08-.44.31-.82.31C39.78,37.82,40.18,38,40.77,37.92Z"/>
      <path class="cls-2" d="M107.64,97.89s1.09-1.57.13-1.19A4.43,4.43,0,0,0,107.64,97.89Z"/>
      <path class="cls-2" d="M71,85.19c.29-.58-.28-1.88-.49-2.46C70.24,82.81,70.87,84.93,71,85.19Z"/>
      <path class="cls-2" d="M100.9,95.65c-.84,1.6-.11.14-.85.53a.51.51,0,0,1,.21.72C100.42,96.76,101.7,95.48,100.9,95.65Z"/>
      <path class="cls-2" d="M39.54,37c-.41.06-.57,0-.56.53a3.32,3.32,0,0,1,.77-.1C39.9,37.3,39.71,37.08,39.54,37Z"/>
      <path class="cls-2" d="M100.5,81.68c-.45.15-.56.5-.26.9C100.68,82.12,100.68,82.12,100.5,81.68Z"/>
      <path class="cls-2" d="M24.1,34.26c-.23.33-.78.89-.12,1.13C23.94,35.16,24.5,34.54,24.1,34.26Z"/>
      <path class="cls-2" d="M9.93,43.73a4.36,4.36,0,0,0,.63-1.28C10.15,42.21,9.69,43.55,9.93,43.73Z"/>
      <path class="cls-2" d="M30.65,36.5l.49-.12c0-.4.31-.74.49-1.1C31.36,35.13,30.68,36.43,30.65,36.5Z"/>
      <path class="cls-2" d="M121.44,83c-.1.16-.64.9-.39,1.21C121.28,83.72,121.59,83.6,121.44,83Z"/>
      <path class="cls-2" d="M63.05,67.38c.13-.16.63-.45.31-.67S62.54,67.28,63.05,67.38Z"/>
      <path class="cls-2" d="M122.11,87.13c-.42.06-.13.65,0,.76C122.23,87.74,122.58,87.07,122.11,87.13Z"/>
      <path class="cls-2" d="M10,44.31c-.38-.24-.54-.07-.47.51C9.93,45,10.08,44.79,10,44.31Z"/>
      <path class="cls-2" d="M58.22,47.19a.45.45,0,0,0,.33.54.84.84,0,0,0,.06-.8C58.59,47.27,58.46,47.35,58.22,47.19Z"/>
      <path class="cls-2" d="M57.43,68.26a.64.64,0,0,0-.83-.11A.59.59,0,0,0,57.43,68.26Z"/>
      <path class="cls-2" d="M45.94,36.21l-.69.42C45.43,36.75,46.33,36.68,45.94,36.21Z"/>
      <path class="cls-2" d="M120.76,84.88a.51.51,0,0,0,.28-.73C120.89,84.5,120.55,84.35,120.76,84.88Z"/>
      <path class="cls-2" d="M93,95.35c-.45,0-.62.29-.42.69Z"/>
      <path class="cls-2" d="M11.53,45.86c.48.06.38-.24.38-.63A.85.85,0,0,0,11.53,45.86Z"/>
      <path class="cls-2" d="M99.69,98.36c-.18.23-.39.6-.55.86A.65.65,0,0,0,99.69,98.36Z"/>
      <path class="cls-2" d="M68.31,88.75a1.27,1.27,0,0,0,.1.12C68.45,88.66,68.41,88.62,68.31,88.75Z"/>
      <path class="cls-2" d="M68.41,88.87a6.84,6.84,0,0,1-.21.74C68.77,89.64,68.84,89.39,68.41,88.87Z"/>
      <path class="cls-2" d="M85.5,99.71a.6.6,0,0,0,.54.18C86.22,99.45,85.65,99.65,85.5,99.71Z"/>
      <path class="cls-2" d="M102.36,102.21h-.52C101.92,102.6,102.09,102.6,102.36,102.21Z"/>
      <path class="cls-2" d="M116.24,86.85l-.6.66A.76.76,0,0,0,116.24,86.85Z"/>
      <path class="cls-2" d="M115.29,92.49a.63.63,0,0,0,0,.8c-.14.06-.35.28,0,0h0C115.29,93,115.32,92.82,115.29,92.49Z"/>
      <path class="cls-2" d="M46.27,32.16l-.63.14C46,32.65,46.19,32.61,46.27,32.16Z"/>
      <path class="cls-2" d="M58.2,49.68c.37,0,.53,0,.48-.26C58.39,49.3,58.23,49.39,58.2,49.68Z"/>
      <path class="cls-2" d="M62.08,66.12l-.13.41C62.35,66.27,62.35,66.24,62.08,66.12Z"/>
      <path class="cls-2" d="M32.16,33.67c-.14.12-.35,0-.37.31C32,34,32.15,33.92,32.16,33.67Z"/>
      <path class="cls-2" d="M32.42,33.26c.11-.19.32-.09.27-.44C32.27,32.92,32.18,33.06,32.42,33.26Z"/>
      <path class="cls-2" d="M120.87,85.43c0-.24-.06-.35-.23-.34C120.44,85.49,120.52,85.6,120.87,85.43Z"/>
      <path class="cls-2" d="M65.27,55.64l0-.39C65.08,55.35,65,55.58,65.27,55.64Z"/>
      <path class="cls-2" d="M76.6,74.45c-.08-.17-.69,0,0,0Z"/>
      <path class="cls-2" d="M68.05,57.46l.2.46C68.53,57.82,68.15,57.51,68.05,57.46Z"/>
      <path class="cls-2" d="M37.09,37l.48-.12C37.3,36.7,37.3,36.7,37.09,37Z"/>
      <path class="cls-2" d="M45.23,33.61c.17.06.29,0,.36-.14C45.42,33.39,45.28,33.38,45.23,33.61Z"/>
      <path class="cls-2" d="M100.64,82.39c.21.17.35,0,.41-.45A.54.54,0,0,0,100.64,82.39Z"/>
      <path class="cls-2" d="M11.39,46.32a.29.29,0,0,0-.19.37C11.29,46.55,11.52,46.64,11.39,46.32Z"/>
      <path class="cls-2" d="M68.19,56.22s.21.08.23-.12C68.34,56.16,68.33,56,68.19,56.22Z"/>
      <path class="cls-2" d="M12.16,44.59c-.19,0-.27.1-.25.3C12.05,44.83,12.21,44.83,12.16,44.59Z"/>
      <path class="cls-2" d="M32,34.66l-.21.37C32,34.9,32,34.9,32,34.66Z"/>
      <path class="cls-2" d="M61.82,56.44c.19.09.51-.42,0,0Z"/>
      <path class="cls-2" d="M30,48.39c-.26.16-.14.17-.23.29A.23.23,0,0,0,30,48.39Z"/>
      <path class="cls-2" d="M38.87,36.79c-.43.41,0,.15,0,0Z"/>
      <path class="cls-2" d="M68.19,48.56a.35.35,0,0,0-.35-.05C68,48.64,68.1,48.77,68.19,48.56Z"/>
      <path class="cls-2" d="M33.34,38.5l-.38.27C33.23,38.8,33.33,38.71,33.34,38.5Z"/>
      <path class="cls-2" d="M111.05,97.1c-.25.15,0,.39,0,0Z"/>
      <path class="cls-2" d="M107.78,96.69c0-.11.15-.28-.1-.41C107.47,96.61,107.51,96.75,107.78,96.69Z"/>
      <path class="cls-2" d="M94.39,95.39l.35-.17C94.5,95.06,94.41,95.17,94.39,95.39Z"/>
      <path class="cls-2" d="M36.24,36.89c.4.26.43-.36,0,0Z"/>
      <path class="cls-2" d="M93.07,96.05a.26.26,0,0,0,.38,0C93.42,95.88,93.29,95.88,93.07,96.05Z"/>
      <path class="cls-2" d="M12.55,43.63c.18.17.29-.4,0,0Z"/>
      <path class="cls-2" d="M99.6,96.81c.28-.14.28-.14.28-.38Z"/>
      <path class="cls-2" d="M100.12,96.93l-.29.23C99.9,97.37,100,97.29,100.12,96.93Z"/>
      <path class="cls-2" d="M38.48,36c.11.18.21.21.3.1S38.64,35.85,38.48,36Z"/>
      <path class="cls-2" d="M46.62,32.42l.45.13C47,32.45,46.87,32.28,46.62,32.42Z"/>
      <path class="cls-2" d="M39.54,37c.33-.48-.3,0,0,0Z"/>
      <path class="cls-2" d="M101.26,77.07l-.31.24C101.27,77.33,101.27,77.33,101.26,77.07Z"/>
      <path class="cls-2" d="M38.88,36.8a2.46,2.46,0,0,1,.33-.06Q38.86,36.2,38.88,36.8Z"/>
      <path class="cls-2" d="M32.17,33.68a.74.74,0,0,1,0-.25C32.08,33.53,32.08,33.61,32.17,33.68Z"/>
      <path class="cls-2" d="M32.18,33.43a.76.76,0,0,1,.23-.18C32.27,33.14,32.2,33.28,32.18,33.43Z"/>
      <path class="cls-2" d="M94.94,88.55l-.13-.25C94.76,88.43,94.64,88.62,94.94,88.55Z"/>
      <path class="cls-2" d="M52.91,125.4a.71.71,0,0,0-.6-.08A1.14,1.14,0,0,1,52.91,125.4Z"/>
      <path class="cls-2" d="M32,41.86c.15.12.23,0,.26-.22C32.07,41.52,32,41.6,32,41.86Z"/>
      <path class="cls-2" d="M32.22,41.31l.43-.16C32.51,41.18,32.33,41.07,32.22,41.31Z"/>
      <path class="cls-2" d="M78.94,74.48l.25.28C79.3,74.41,79.21,74.32,78.94,74.48Z"/>
      <path class="cls-2" d="M39.88,38.66c.11.14.2.08.27-.15S40,38.36,39.88,38.66Z"/>
      <path class="cls-2" d="M68.42,56.1c.28.06.34-.13,0,0Z"/>
      <path class="cls-2" d="M115.06,83.73c.1.12.39.07,0,0Z"/>
      <path class="cls-2" d="M89.56,98.71l-.35.09C89.37,98.84,89.12,99.17,89.56,98.71Z"/>
      <path class="cls-2" d="M61.67,61.46l.25-.35C61.68,61.16,61.59,61.23,61.67,61.46Z"/>
      <path class="cls-2" d="M105.94,82v.38C106,82.2,106.19,82.35,105.94,82Z"/>
      <path class="cls-2" d="M31.66,35.72,31.5,36C31.64,36,31.82,36,31.66,35.72Z"/>
      <path class="cls-2" d="M31.94,35.51c.1.13.19.08.28-.16C32.12,35.2,32,35.25,31.94,35.51Z"/>
      <path class="cls-2" d="M59.66,68.21,60,68C59.91,67.85,59.58,68.1,59.66,68.21Z"/>
      <path class="cls-2" d="M78.4,83.19l-.26.16C78.36,83.4,78.36,83.4,78.4,83.19Z"/>
      <path class="cls-2" d="M9.15,46c.29-.31.09-.16,0,0Z"/>
      <path class="cls-2" d="M95,88.14c.1.14.54-.27,0,0Z"/>
      <path class="cls-2" d="M24.24,35.37c-.19.16-.2.26,0,.45Z"/>
      <path class="cls-2" d="M65.08,54.88c-.13.36.23.17,0,0Z"/>
      <path class="cls-2" d="M68.38,48.86c.06.21.48-.14,0,0Z"/>
      <path class="cls-2" d="M107.76,75.31c.19,0,.28,0,.24-.18Q108,75.21,107.76,75.31Z"/>
      <path class="cls-2" d="M56.55,52h-.4C56.37,52,56.25,52.16,56.55,52Z"/>
      <path class="cls-2" d="M62.13,60.05,62,59.83C61.87,60.06,62,60.06,62.13,60.05Z"/>
      <path class="cls-2" d="M30.19,30.55c-.12.11.29.33,0,0Z"/>
      <path class="cls-2" d="M86.67,99.75c0-.19-.51-.1,0,0Z"/>
      <path class="cls-2" d="M102.21,83.34c-.12,0-.14,0-.08.06Z"/>
      <path class="cls-2" d="M102.21,83.34a1.38,1.38,0,0,1,.28,0C102.48,83.22,102.39,83.2,102.21,83.34Z"/>
      <path class="cls-2" d="M59.7,57.5c0,.19.47-.07,0,0Z"/>
      <path class="cls-2" d="M58.63,63.76c-.39-.17-.28.15,0,0Z"/>
      <path class="cls-2" d="M115.25,87.12c-.2-.35-.38,0,0,0Z"/>
      <path class="cls-2" d="M65.52,53c0-.09.29-.16,0-.31Z"/>
      <path class="cls-2" d="M24.1,37.09c-.19,0,.1.6,0,0Z"/>
      <path class="cls-2" d="M63.14,56.08l.27.15C63.31,56,63.31,56,63.14,56.08Z"/>
      <path class="cls-2" d="M20.78,34.91c.26-.25,0-.2,0,0Z"/>
      <path class="cls-2" d="M22.06,36.82c.1,0,.22-.43,0,0Z"/>
      <path class="cls-2" d="M29.13,35.53l.19-.34C29.1,35.31,29,35.43,29.13,35.53Z"/>
      <path class="cls-2" d="M102,103.07c.14-.2-.17-.22,0,0Z"/>
      <path class="cls-2" d="M80,56c-.19.3.18.32,0,0Z"/>
      <path class="cls-2" d="M98.64,93.48c-.1-.14-.4.21,0,0Z"/>
      <path class="cls-2" d="M30,28.34c.11.16.16-.06,0,0Z"/>
      <path class="cls-2" d="M111.25,85.21c-.19-.22-.24.1,0,0Z"/>
      <path class="cls-2" d="M86.38,98.49c0,.23.48,0,0,0Z"/>
      <path class="cls-2" d="M42,39.4c.14,0,.16-.07.07-.28C41.89,39.08,41.87,39.18,42,39.4Z"/>
      <path class="cls-2" d="M95.77,82.63c-.14-.07-.24.54,0,0Z"/>
      <path class="cls-2" d="M20.27,39.29c-.21,0,.06.53,0,0Z"/>
      <path class="cls-2" d="M100.06,97.88l0,.34c-.13,0-.62,0-.39.14l.39-.12h0s0,0,0,0S100.27,98,100.06,97.88Z"/>
      <path class="cls-2" d="M30.37,49.56c-.21-.15-.21.17,0,0Z"/>
      <path class="cls-2" d="M79.44,74c0-.21-.54.1,0,0Z"/>
      <path class="cls-2" d="M79.83,74.89c-.15,0-.53.14,0,0Z"/>
      <path class="cls-2" d="M30,28.8c.17-.08-.08-.12,0,0Z"/>
      <path class="cls-2" d="M68.61,58.11c-.16-.11-.12.13,0,0Z"/>
      <path class="cls-2" d="M62.49,54.11c-.1.14.07.14,0,0Z"/>
      <path class="cls-2" d="M110.17,83.74c.39-.13,0-.11,0,0Z"/>
      <path class="cls-2" d="M102.67,96.87c-.07.09-.32.53,0,0Z"/>
      <path class="cls-2" d="M107.8,94.67c-.18,0,0,.5,0,0Z"/>
      <path class="cls-2" d="M45.46,32.72c0,.15.39.05,0,0Z"/>
      <path class="cls-2" d="M80.3,80.58c-.1.1.13.12,0,0Z"/>
      <path class="cls-2" d="M82.45,55.49c-.25-.11-.19.19,0,0Z"/>
      <path class="cls-2" d="M62.36,54.48c-.15-.13-.12.13,0,0Z"/>
      <path class="cls-2" d="M97.48,103.81c.15-.06-.14-.38,0,0Z"/>
      <path class="cls-2" d="M65.81,104.5c-.07-.2-.16.13,0,0Z"/>
      <path class="cls-2" d="M61,67.5c-.08,0-.16.33,0,0Z"/>
      <path class="cls-2" d="M31.68,48.34c.14,0-.07-.31,0,0Z"/>
      <path class="cls-2" d="M21.4,88.26a.34.34,0,0,1-.12.06Q21.46,88.41,21.4,88.26Z"/>
      <path class="cls-2" d="M21.28,88.32a2,2,0,0,1-.34-.23C21,88.31,21.12,88.38,21.28,88.32Z"/>
      <path class="cls-2" d="M90.07,109.66c.15-.24.27-.5.45-.75C90.29,108.72,90,109.52,90.07,109.66Z"/>
      <path class="cls-2" d="M89.5,107.56c.11,0,.12-.37,0,0Z"/>
      <path class="cls-2" d="M98.27,42.34a5.42,5.42,0,0,0-.57-1.67.61.61,0,0,0-.67-.38,2,2,0,0,0-.35-1.21c-.83-.58-2-.55-2,1,0,2.28,2.28.62,2.39.87.61,1.25-1.18.87-1.46,1.39-.48.89.29,2,1.05,2.47C98.23,44.85,98.43,43.62,98.27,42.34Z"/>
      <path class="cls-2" d="M77.94,30c-1.6-.07-1.24,2.56,0,2.28C79.48,32,79.48,30.06,77.94,30Z"/>
      <path class="cls-2" d="M91,39c1.41,0,1.23-2.27-.06-2.23A1.12,1.12,0,0,0,91,39Z"/>
      <path class="cls-2" d="M34.84,91.75c-.11,3,3.16,1.45,2.24-.31-.59-1.14-.71-.38-1.55-.6.07,0-1.65.64-.6-.6.72-.83,1.24.18,1.45-1A1.69,1.69,0,0,0,35,87.39C32.55,87.21,33.58,91.91,34.84,91.75Z"/>
      <path class="cls-2" d="M53.92,102.09c1.5,0,1.41-2.37,0-2.28C52.18,99.79,52.56,102.09,53.92,102.09Z"/>
      <path class="cls-2" d="M40.92,95.27a1.12,1.12,0,0,0-.07-2.22C39.45,93.06,39.63,95.32,40.92,95.27Z"/>
      <path class="cls-2" d="M58.7,25.72c.2.09.31,0,.41-.22C58.84,25.42,58.7,25.45,58.7,25.72Z"/>
      <path class="cls-2" d="M73.15,106.57c0-.42-.1-.44-.46-.08C72.92,106.48,72.79,106.67,73.15,106.57Z"/>
      <path class="cls-2" d="M74.29,107.15c-.19-.13-.28-.05-.27.25A.25.25,0,0,0,74.29,107.15Z"/>
      <path class="cls-2" d="M81.88,103.13c0-.19,0-.27-.21-.23S81.6,103.15,81.88,103.13Z"/>
      <path class="cls-2" d="M44.53,24.32c.39.18.72-.14.86-.54A1.67,1.67,0,0,0,44.53,24.32Z"/>
      <path class="cls-2" d="M45.79,23.59l.41-.29C46,23.05,45.82,23.46,45.79,23.59Z"/>
      <path class="cls-2" d="M46,21.68l-.26.29C46.09,21.91,46.09,21.91,46,21.68Z"/>
      <path class="cls-2" d="M44.05,24.85l.28-.2C44.15,24.6,44.06,24.68,44.05,24.85Z"/>
      <path class="cls-2" d="M46.86,23.13c-.14-.12-.39.49,0,0Z"/>
      <path class="cls-2" d="M48.06,22.34c-.19,0-.51.13,0,0Z"/>
      <path class="cls-2" d="M86.44,108.3a1.75,1.75,0,0,0,1-.62C86.82,107.59,86.66,108,86.44,108.3Z"/>
      <path class="cls-2" d="M85.69,108.83c.31,0,.31,0,.45-.37C85.91,108.59,85.73,108.61,85.69,108.83Z"/>
      <path class="cls-2" d="M87.54,107.55l.37-.24C87.79,107.11,87.57,107.42,87.54,107.55Z"/>
      <path class="cls-2" d="M84.74,109.07a1,1,0,0,1,.29,0C85,108.86,84.85,108.87,84.74,109.07Z"/>
      <path class="cls-2" d="M84.67,109.23a.84.84,0,0,1,.07-.16C84.62,109.1,84.6,109.16,84.67,109.23Z"/>
      <path class="cls-2" d="M85.76,110.4c.37,0,0-.61,0,0Z"/>
      <path class="cls-2" d="M86.34,109.77c-.12-.13-.36.31,0,0Z"/>
      <path class="cls-2" d="M110.89,44.08a.14.14,0,0,0,0,.06A.39.39,0,0,1,110.89,44.08Z"/>
      <path class="cls-2" d="M110.57,43.78a.48.48,0,0,1,.32.3C110.84,43.86,111.1,43.68,110.57,43.78Z"/>
      <path class="cls-2" d="M23.5,56.76c-.27.23-.23.4.14.52C23.74,57.11,23.83,56.65,23.5,56.76Z"/>
      <path class="cls-2" d="M57,81.5l.35-.46C57,81.08,57,81.08,57,81.5Z"/>
      <path class="cls-2" d="M57.17,80.79l.37-.09C57.46,80.52,57.34,80.55,57.17,80.79Z"/>
      <path class="cls-2" d="M57.57,80.38c.17.06.24,0,.21-.25C57.55,80.06,57.48,80.14,57.57,80.38Z"/>
      <path class="cls-2" d="M59,77.32c.12.06.35-.73,0,0Z"/>
      <path class="cls-2" d="M58.76,77.85l.24-.32C58.77,77.54,58.69,77.64,58.76,77.85Z"/>
      <path class="cls-2" d="M58.76,77.85c0,.08,0,.08,0,0Z"/>
      <path class="cls-2" d="M58.75,77.88c.16,0,.63,0,0,0Z"/>
      <path class="cls-2" d="M57.85,79.22c.09.1.34-.27,0,0Z"/>
      <path class="cls-2" d="M59.67,76.24c.19.1.17-.19,0,0Z"/>
      <path class="cls-2" d="M58.33,79.37c-.22-.06-.1.12,0,0Z"/>
      <path class="cls-2" d="M59.54,80.09c.11.06.23-.34,0,0Z"/>
    </g>
  </g>
</svg>
