<svg height="291" viewBox="0 0 192 291" width="192" xmlns="http://www.w3.org/2000/svg" xmlns:xlink="http://www.w3.org/1999/xlink"><linearGradient id="a" x1="49.415698%" x2="49.415698%" y1="98.307999%" y2="-.704753%"><stop offset="0" stop-color="#697c8a"/><stop offset=".13" stop-color="#637583"/><stop offset=".33" stop-color="#54636e"/><stop offset=".57" stop-color="#3a454d"/><stop offset=".84" stop-color="#171b1e"/><stop offset="1" stop-color="#fff"/></linearGradient><g fill="none" fill-rule="evenodd" transform="matrix(.64278761 -.76604444 .76604444 .64278761 -47.560126 247.423027)"><path d="m.2 68.07c28.41-63.2 234.44-70.7 323.45-66.43l.15 39.44-18.65.77-.35-31.45-18.23-.25-9.8 38.3s-130.6-28.28-276.57 19.62z" fill="url(#a)" fill-rule="nonzero"/><path d="m.22 47.21c4.49392883-4.2414484 9.53941215-7.8573781 15-10.75 5.4168817-2.9395542 11.0071561-5.547681 16.74-7.81 5.73-2.29 11.57-4.26 17.45-6.06l4.42-1.36 4.43-1.23c2.95-.86 5.94-1.6 8.92-2.37s6-1.43 9-2.15 6-1.28 9-1.91l9.07-1.75 9.09-1.57c12.15-2 24.33-3.64 36.55-5 6.11-.67 12.23-1.18 18.36-1.74s12.25-1 18.38-1.35c12.26-.8 24.53-1.45 36.81-1.72 6.12-.15 12.24-.3 18.42-.34s12.29-.1 18.43-.1c12.27.13 24.54.32 36.82.79v.19c-24.54-.22-49.073333.11333333-73.6 1-12.26.47-24.56 1.09-36.74 2-6.16.39-12.23.89-18.35 1.43s-12.21 1.14-18.3 1.85c-24.39 2.67-48.7 6.25-72.58 11.91-11.961627 2.7457505-23.7383052 6.2426824-35.26 10.47-5.7407704 2.141476-11.3504768 4.6190963-16.8 7.42-5.475361 2.7628633-10.57086265 6.2214855-15.16 10.29z" fill="#fff" fill-rule="nonzero" opacity=".6" transform="translate(18 5)"/><path d="m1.45 67.34c59.27-22.92 168.85-39.28 276-20" stroke="#fff" stroke-width="2"/></g></svg>