<svg id="Layer_1" data-name="Layer 1" xmlns="http://www.w3.org/2000/svg" xmlns:xlink="http://www.w3.org/1999/xlink" viewBox="0 0 64 176" width="64" height="176">
  <defs>
    <style>
      .cls-1 {
        fill: url(#linear-gradient);
      }

      .cls-2 {
        fill: url(#linear-gradient-2);
      }

      .cls-3 {
        fill: url(#linear-gradient-3);
      }

      .cls-4 {
        fill: url(#linear-gradient-4);
      }

      .cls-5 {
        fill: url(#linear-gradient-5);
      }

      .cls-6 {
        opacity: 0.5;
      }

      .cls-7 {
        fill: #fff;
      }
    </style>
    <linearGradient id="linear-gradient" x1="32" y1="91.37" x2="32" y2="86.77" gradientUnits="userSpaceOnUse">
      <stop offset="0" stop-color="#97b4c5"/>
      <stop offset="0.18" stop-color="#90adbe"/>
      <stop offset="0.46" stop-color="#7b99ab"/>
      <stop offset="0.79" stop-color="#5a788d"/>
      <stop offset="1" stop-color="#416076"/>
    </linearGradient>
    <linearGradient id="linear-gradient-2" x1="56.21" y1="54.25" x2="7.79" y2="54.25" xlink:href="#linear-gradient"/>
    <linearGradient id="linear-gradient-3" x1="26.37" y1="114.48" x2="39.04" y2="114.48" xlink:href="#linear-gradient"/>
    <linearGradient id="linear-gradient-4" x1="1" y1="46.19" x2="7.79" y2="46.19" gradientUnits="userSpaceOnUse">
      <stop offset="0" stop-color="#416076"/>
      <stop offset="0.33" stop-color="#577487"/>
      <stop offset="0.73" stop-color="#6c8597"/>
      <stop offset="1" stop-color="#738c9d"/>
    </linearGradient>
    <linearGradient id="linear-gradient-5" x1="-648.75" y1="46.49" x2="-641.96" y2="46.49" gradientTransform="matrix(-1, 0, 0, 1, -585.75, 0)" gradientUnits="userSpaceOnUse">
      <stop offset="0" stop-color="#97b4c5"/>
      <stop offset="0.29" stop-color="#7b98ab"/>
      <stop offset="0.76" stop-color="#517085"/>
      <stop offset="1" stop-color="#416076"/>
    </linearGradient>
  </defs>
  <title>shovel</title>
  <g>
    <polygon class="cls-1" points="63 91.37 1 91.37 7.79 86.77 56.21 86.77 63 91.37"/>
    <polygon class="cls-2" points="56.21 86.77 45.71 86.77 32.7 107.5 19.46 86.77 7.79 86.77 7.79 1 39.8 2.85 41.18 4.82 43.31 2.85 45.65 6.52 47.67 2.85 56.21 1.62 56.21 86.77"/>
    <path class="cls-3" d="M39,171.79c0,4.61-12.67,3.93-12.67,0v-85c0-43.32,12.67-44.17,12.67,0Z"/>
    <polygon class="cls-4" points="1 91.37 7.79 86.77 7.79 1 1 11.28 1 91.37"/>
    <polygon class="cls-5" points="63 91.37 56.21 86.77 56.21 1.62 63 11.28 63 91.37"/>
    <g class="cls-6">
      <path class="cls-7" d="M28.67,94.75A98.57,98.57,0,0,1,31.11,111c.27,2.71.32,5.43.47,8.14s.07,5.43.1,8.14-.1,5.43-.22,8.14-.26,5.41-.54,8.12a129.61,129.61,0,0,1-2.25,16.24h-.34c-.12-10.85,0-21.69,0-32.53s.26-21.68,0-32.51Z"/>
    </g>
    <g class="cls-6">
      <path class="cls-7" d="M32.28,57.07a12.36,12.36,0,0,1,.79,3.43,7.71,7.71,0,0,1-1.25,4.91,12.67,12.67,0,0,1-2.31,2.64l-.34,0a13.67,13.67,0,0,1,0-2.93,20.46,20.46,0,0,1,.45-2.91,19.55,19.55,0,0,1,1-2.78A13.91,13.91,0,0,1,32,56.89Z"/>
    </g>
  </g>
</svg>
