<svg id="Layer_1" data-name="Layer 1" xmlns="http://www.w3.org/2000/svg" viewBox="0 0 82 82">
  <defs>
    <style>
      .cls-1 {
        fill: #e6e1dc;
      }
    </style>
  </defs>
  <title>Torso</title>
  <path class="cls-1" d="M41,77.52l-.11,0H40v-.19L23.1,73.62,26.22,50,24.25,36,21.1,45.72l-2.47,20.9L5.86,65.34l4.29-30.1L17.66,16l18.58-4.76L38.53,21l-2,.45-1.82-7.74-15.61,4L12.06,35.86,8.13,63.56l8.75.87L19.17,45.2,25,27.06l3.2,23-2.91,22L40,75.26V35.74l0-.11,5.61-24L64.34,16l7.57,19.44,4.23,29.87L63.37,66.62,60.9,45.72,57.75,36,55.78,50,58.9,73.62,42,77.31v.19ZM42,36V75.26l14.68-3.2L53.77,50l3.2-23,5.9,18.33,2.25,19,8.75-.87-3.93-27.7L62.86,17.73,47.13,14Z"/>
</svg>
