<svg id="Layer_1" data-name="Layer 1" xmlns="http://www.w3.org/2000/svg" viewBox="0 0 82 82">
  <defs>
    <style>
      .cls-1 {
        fill: #e6e1dc;
      }
    </style>
  </defs>
  <title>Torso-Active</title>
  <g>
    <polyline class="cls-1" points="41 77.5 41 35.86 46.38 12.79 63.6 16.88 70.92 35.61 75.01 64.45 64.25 65.52 61.88 45.51 57.36 31.52 54.77 50.03 57.79 72.84 41 76.5 24.21 72.84 27.23 50.03 24.64 31.52 20.12 45.51 17.75 65.52 6.99 64.45 11.08 35.61 18.4 16.88 35.5 12.5 41 35.86"/>
    <path d="M41,77.52l-.11,0H40v-.19L23.1,73.62,26.22,50,24.25,36,21.1,45.72l-2.47,20.9L5.86,65.34l4.29-30.1L17.66,16l18.58-4.76L41,31.48l4.64-19.89L64.34,16l7.57,19.44,4.23,29.87L63.37,66.62,60.9,45.72,57.75,36,55.78,50,58.9,73.62,42,77.31v.19ZM42,36V75.26l14.68-3.2L53.77,50v-.13L57,27.06l5.9,18.33,2.25,19,8.75-.87-3.93-27.7L62.86,17.73,47.13,14ZM25.32,72.06,40,75.26V36L34.76,13.72l-15.61,4L12.06,35.86,8.13,63.56l8.75.87L19.17,45.2,25,27.06l3.2,23Z"/>
  </g>
</svg>
